<svg data-v-423bf9ae="" xmlns="http://www.w3.org/2000/svg" viewBox="0 0 433 90" class="iconLeftSlogan"><!----><!----><!----><g data-v-423bf9ae="" id="1a6c2483-202c-4185-924d-195035827d06" fill="#ECDFCC" transform="matrix(5.1457977294921875,0,0,5.1457977294921875,88.93266296386719,-18.67924690246582)"><path d="M4.19 4.09Q5.29 4.09 6.13 4.54Q6.97 5.00 7.43 5.82Q7.90 6.65 7.90 7.73L7.90 7.73L7.90 10.65Q7.90 11.89 7.25 12.75Q6.59 13.62 5.45 13.94L5.45 13.94Q5.36 13.99 5.36 14.06L5.36 14.06L5.36 15.04Q5.36 15.15 5.29 15.22Q5.22 15.29 5.11 15.29L5.11 15.29L3.29 15.29Q3.18 15.29 3.11 15.22Q3.04 15.15 3.04 15.04L3.04 15.04L3.04 14.06Q3.04 13.99 2.95 13.94L2.95 13.94Q1.81 13.64 1.15 12.77Q0.49 11.90 0.49 10.65L0.49 10.65L0.49 7.73Q0.49 6.65 0.95 5.82Q1.41 5.00 2.25 4.54Q3.09 4.09 4.19 4.09L4.19 4.09ZM5.57 10.60L5.57 7.60Q5.57 6.92 5.19 6.50Q4.82 6.08 4.19 6.08L4.19 6.08Q3.57 6.08 3.19 6.50Q2.81 6.92 2.81 7.60L2.81 7.60L2.81 10.60Q2.81 11.28 3.19 11.70Q3.57 12.12 4.19 12.12L4.19 12.12Q4.82 12.12 5.19 11.70Q5.57 11.28 5.57 10.60L5.57 10.60ZM13.17 7.01Q13.17 6.90 13.24 6.83Q13.31 6.76 13.43 6.76L13.43 6.76L15.25 6.76Q15.36 6.76 15.43 6.83Q15.50 6.90 15.50 7.01L15.50 7.01L15.50 13.75Q15.50 13.86 15.43 13.93Q15.36 14 15.25 14L15.25 14L13.43 14Q13.31 14 13.24 13.93Q13.17 13.86 13.17 13.75L13.17 13.75L13.17 13.40Q13.17 13.33 13.14 13.31Q13.10 13.30 13.06 13.36L13.06 13.36Q12.47 14.11 11.33 14.11L11.33 14.11Q10.26 14.11 9.60 13.44Q8.95 12.77 8.95 11.56L8.95 11.56L8.95 7.01Q8.95 6.90 9.02 6.83Q9.09 6.76 9.20 6.76L9.20 6.76L11.02 6.76Q11.13 6.76 11.20 6.83Q11.27 6.90 11.27 7.01L11.27 7.01L11.27 11.03Q11.27 11.52 11.52 11.82Q11.77 12.11 12.21 12.11L12.21 12.11Q12.60 12.11 12.86 11.87Q13.12 11.63 13.17 11.24L13.17 11.24L13.17 7.01ZM17.95 6.29Q17.33 6.29 16.95 5.91Q16.58 5.54 16.58 4.94L16.58 4.94Q16.58 4.35 16.95 3.99Q17.33 3.63 17.95 3.63L17.95 3.63Q18.56 3.63 18.94 3.99Q19.32 4.35 19.32 4.94L19.32 4.94Q19.32 5.54 18.94 5.91Q18.56 6.29 17.95 6.29L17.95 6.29ZM17.04 14Q16.93 14 16.86 13.93Q16.79 13.86 16.79 13.75L16.79 13.75L16.79 7.01Q16.79 6.90 16.86 6.83Q16.93 6.76 17.04 6.76L17.04 6.76L18.86 6.76Q18.97 6.76 19.04 6.83Q19.11 6.90 19.11 7.01L19.11 7.01L19.11 13.75Q19.11 13.86 19.04 13.93Q18.97 14 18.86 14L18.86 14L17.04 14ZM23.72 14.11Q22.57 14.11 21.71 13.54Q20.85 12.96 20.48 11.96L20.48 11.96Q20.22 11.28 20.22 10.35L20.22 10.35Q20.22 9.41 20.48 8.74L20.48 8.74Q20.83 7.76 21.70 7.20Q22.57 6.65 23.72 6.65L23.72 6.65Q24.88 6.65 25.76 7.22Q26.64 7.80 26.95 8.68L26.95 8.68Q27.03 8.90 27.06 9.14L27.06 9.14L27.06 9.20Q27.06 9.38 26.84 9.42L26.84 9.42L25.06 9.69L24.99 9.70Q24.81 9.70 24.78 9.53L24.78 9.53L24.72 9.34Q24.64 9.03 24.36 8.83Q24.08 8.64 23.70 8.64L23.70 8.64Q22.96 8.64 22.72 9.30L22.72 9.30Q22.57 9.69 22.57 10.36L22.57 10.36Q22.57 10.96 22.71 11.41L22.71 11.41Q22.97 12.12 23.70 12.12L23.70 12.12Q24.07 12.12 24.32 11.94Q24.58 11.76 24.71 11.41L24.71 11.41L24.72 11.34L24.72 11.34Q24.74 11.27 24.83 11.19Q24.92 11.12 25.02 11.13L25.02 11.13L26.81 11.41Q27.06 11.45 27.02 11.69L27.02 11.69Q26.99 11.91 26.95 12.04L26.95 12.04Q26.61 13.02 25.74 13.57Q24.86 14.11 23.72 14.11L23.72 14.11ZM28.25 14Q28.14 14 28.07 13.93Q28 13.86 28 13.75L28 13.75L28 4.45Q28 4.34 28.07 4.27Q28.14 4.20 28.25 4.20L28.25 4.20L30.07 4.20Q30.18 4.20 30.25 4.27Q30.32 4.34 30.32 4.45L30.32 4.45L30.32 8.67Q30.32 8.74 30.37 8.75Q30.41 8.76 30.45 8.71L30.45 8.71L31.91 6.92Q32.02 6.76 32.21 6.76L32.21 6.76L34.29 6.76Q34.50 6.76 34.50 6.92L34.50 6.92Q34.50 7 34.44 7.07L34.44 7.07L32.70 9.31Q32.65 9.39 32.69 9.45L32.69 9.45L34.73 13.71L34.76 13.82Q34.76 14 34.54 14L34.54 14L32.65 14Q32.44 14 32.35 13.80L32.35 13.80L31.12 10.92Q31.11 10.86 31.06 10.86Q31.01 10.86 30.98 10.91L30.98 10.91L30.37 11.80Q30.32 11.84 30.32 11.93L30.32 11.93L30.32 13.75Q30.32 13.86 30.25 13.93Q30.18 14 30.07 14L30.07 14L28.25 14ZM39.23 14.11Q38.11 14.11 37.26 13.74Q36.41 13.37 35.95 12.68Q35.49 11.98 35.49 11.07L35.49 11.07L35.49 10.89Q35.49 10.78 35.56 10.71Q35.63 10.64 35.74 10.64L35.74 10.64L37.52 10.64Q37.63 10.64 37.70 10.69Q37.77 10.74 37.77 10.81L37.77 10.81L37.77 10.98Q37.77 11.42 38.23 11.77Q38.68 12.12 39.40 12.12L39.40 12.12Q40.01 12.12 40.31 11.86Q40.60 11.59 40.60 11.24L40.60 11.24Q40.60 10.85 40.26 10.64Q39.91 10.43 39.03 10.15L39.03 10.15L38.72 10.05Q37.83 9.76 37.16 9.41Q36.48 9.07 36.01 8.46Q35.53 7.85 35.53 6.96L35.53 6.96Q35.53 6.09 35.99 5.44Q36.44 4.79 37.25 4.44Q38.05 4.09 39.07 4.09L39.07 4.09Q40.15 4.09 41.01 4.48Q41.87 4.87 42.36 5.59Q42.85 6.30 42.85 7.22L42.85 7.22L42.85 7.34Q42.85 7.45 42.78 7.52Q42.71 7.59 42.60 7.59L42.60 7.59L40.82 7.59Q40.71 7.59 40.64 7.55Q40.57 7.52 40.57 7.45L40.57 7.45L40.57 7.32Q40.57 6.83 40.14 6.45Q39.70 6.08 38.98 6.08L38.98 6.08Q38.43 6.08 38.12 6.30Q37.81 6.52 37.81 6.93L37.81 6.93Q37.81 7.24 38.01 7.44Q38.21 7.64 38.62 7.82Q39.03 7.99 39.89 8.27L39.89 8.27Q40.87 8.61 41.41 8.86Q41.96 9.11 42.44 9.68Q42.92 10.25 42.92 11.17L42.92 11.17Q42.92 12.05 42.46 12.72Q42 13.38 41.16 13.75Q40.32 14.11 39.23 14.11L39.23 14.11ZM48.43 8.37Q48.43 8.48 48.36 8.55Q48.29 8.62 48.17 8.62L48.17 8.62L47.01 8.62Q46.91 8.62 46.91 8.72L46.91 8.72L46.91 11.17Q46.91 11.97 47.56 11.97L47.56 11.97L47.99 11.97Q48.10 11.97 48.17 12.04Q48.24 12.11 48.24 12.22L48.24 12.22L48.24 13.69Q48.24 13.92 48.01 13.94L48.01 13.94Q47.36 13.97 47.10 13.97L47.10 13.97Q45.88 13.97 45.29 13.58Q44.70 13.19 44.69 12.12L44.69 12.12L44.69 8.72Q44.69 8.62 44.59 8.62L44.59 8.62L43.90 8.62Q43.79 8.62 43.72 8.55Q43.65 8.48 43.65 8.37L43.65 8.37L43.65 7.01Q43.65 6.90 43.72 6.83Q43.79 6.76 43.90 6.76L43.90 6.76L44.59 6.76Q44.69 6.76 44.69 6.66L44.69 6.66L44.69 5.08Q44.69 4.97 44.76 4.90Q44.83 4.83 44.94 4.83L44.94 4.83L46.66 4.83Q46.77 4.83 46.84 4.90Q46.91 4.97 46.91 5.08L46.91 5.08L46.91 6.66Q46.91 6.76 47.01 6.76L47.01 6.76L48.17 6.76Q48.29 6.76 48.36 6.83Q48.43 6.90 48.43 7.01L48.43 7.01L48.43 8.37ZM52.40 6.65Q53.33 6.65 54.08 6.96Q54.84 7.28 55.27 7.83Q55.71 8.39 55.71 9.06L55.71 9.06L55.71 13.75Q55.71 13.86 55.64 13.93Q55.57 14 55.45 14L55.45 14L53.63 14Q53.52 14 53.45 13.93Q53.38 13.86 53.38 13.75L53.38 13.75L53.38 13.47Q53.38 13.40 53.35 13.38Q53.31 13.37 53.27 13.43L53.27 13.43Q52.71 14.11 51.46 14.11L51.46 14.11Q50.36 14.11 49.70 13.59Q49.04 13.06 49.04 12.04L49.04 12.04Q49.04 10.96 49.79 10.37Q50.54 9.79 51.95 9.79L51.95 9.79L53.28 9.79Q53.38 9.79 53.38 9.69L53.38 9.69L53.38 9.45Q53.38 9.07 53.14 8.86Q52.89 8.64 52.44 8.64L52.44 8.64Q52.12 8.64 51.89 8.74Q51.66 8.85 51.56 9.03L51.56 9.03Q51.49 9.13 51.43 9.18Q51.37 9.23 51.27 9.21L51.27 9.21L49.39 8.97Q49.14 8.95 49.17 8.78L49.17 8.78Q49.24 8.18 49.67 7.69Q50.11 7.21 50.81 6.93Q51.52 6.65 52.40 6.65L52.40 6.65ZM52.16 12.45Q52.70 12.45 53.04 12.17Q53.38 11.90 53.38 11.45L53.38 11.45L53.38 11.14Q53.38 11.05 53.28 11.05L53.28 11.05L52.47 11.05Q51.94 11.05 51.65 11.23Q51.37 11.41 51.37 11.77L51.37 11.77Q51.37 12.08 51.58 12.26Q51.79 12.45 52.16 12.45L52.16 12.45ZM60.70 6.66Q61.15 6.66 61.43 6.82L61.43 6.82Q61.61 6.92 61.57 7.13L61.57 7.13L61.26 8.92Q61.25 9.10 61.08 9.10L61.08 9.10Q61.01 9.10 60.97 9.09L60.97 9.09Q60.80 9.04 60.55 9.04L60.55 9.04Q60.33 9.04 60.21 9.07L60.21 9.07Q59.78 9.13 59.48 9.41Q59.18 9.69 59.18 10.15L59.18 10.15L59.18 13.75Q59.18 13.86 59.11 13.93Q59.04 14 58.93 14L58.93 14L57.11 14Q56.99 14 56.92 13.93Q56.85 13.86 56.85 13.75L56.85 13.75L56.85 7.01Q56.85 6.90 56.92 6.83Q56.99 6.76 57.11 6.76L57.11 6.76L58.93 6.76Q59.04 6.76 59.11 6.83Q59.18 6.90 59.18 7.01L59.18 7.01L59.18 7.32Q59.18 7.39 59.21 7.41Q59.25 7.42 59.28 7.36L59.28 7.36Q59.84 6.66 60.70 6.66L60.70 6.66ZM66.82 8.37Q66.82 8.48 66.75 8.55Q66.68 8.62 66.57 8.62L66.57 8.62L65.41 8.62Q65.31 8.62 65.31 8.72L65.31 8.72L65.31 11.17Q65.31 11.97 65.95 11.97L65.95 11.97L66.39 11.97Q66.50 11.97 66.57 12.04Q66.64 12.11 66.64 12.22L66.64 12.22L66.64 13.69Q66.64 13.92 66.40 13.94L66.40 13.94Q65.76 13.97 65.49 13.97L65.49 13.97Q64.27 13.97 63.69 13.58Q63.10 13.19 63.08 12.12L63.08 12.12L63.08 8.72Q63.08 8.62 62.99 8.62L62.99 8.62L62.30 8.62Q62.19 8.62 62.12 8.55Q62.05 8.48 62.05 8.37L62.05 8.37L62.05 7.01Q62.05 6.90 62.12 6.83Q62.19 6.76 62.30 6.76L62.30 6.76L62.99 6.76Q63.08 6.76 63.08 6.66L63.08 6.66L63.08 5.08Q63.08 4.97 63.15 4.90Q63.22 4.83 63.34 4.83L63.34 4.83L65.06 4.83Q65.17 4.83 65.24 4.90Q65.31 4.97 65.31 5.08L65.31 5.08L65.31 6.66Q65.31 6.76 65.41 6.76L65.41 6.76L66.57 6.76Q66.68 6.76 66.75 6.83Q66.82 6.90 66.82 7.01L66.82 7.01L66.82 8.37Z"></path></g><!----><g data-v-423bf9ae="" id="0a512ba9-e97c-4af5-8916-c5a5a2b9f231" transform="matrix(1.0828527212142944,0,0,1.0828527212142944,-16.0289306640625,-9.778534889221191)" stroke="none" fill="#697565"><path d="M74.4 63.4c-2 0-3.8.8-5 2.1-.1-.3-.3-.8-.6-1.6-3.3-7.8-12.2-9.1-20.2-9.8-1.1-.1-2.7-.3-2.5-1.5 1.4-3.6.8-6.9-1-9.6 2.2-2.3 4.4-5.1 6.1-8.5 4.9-9.7 6.1-19 2.7-20.6-2.5-1.2-6.7 2-10.7 7.6-.7-7-2.8-12-5.6-12.1-3.7-.2-7.2 8.4-7.8 19.3-.2 3.2.2 6.2.9 8.9-4.2.7-8.5 3.1-12.1 7.8-4.6 6-3.8 13 3.1 16.1 2.4 1.1 3.8-.4 1.8 4.3-1.7 3.9-1 7.8 1.8 10.8 3 3.2 3.4 4.1.1 5.8-2.3 1.2-3.4 4-2.1 6.9 1.3 2.8 4 3.1 6.6 3.2 6.4.2 11.7-2.5 17.2-7.3.3 3.5 1.3 5.9 4.4 6.8 6.2 1.8 16.2-1.7 19.6-7.3 1-1.7 1.5-5.7 1.3-7.1.4.1 1.7.2 2.1.2h.8c.4 0 .8-.1 1.2-.2 3-.8 5.2-3.6 5.2-6.8-.2-4.2-3.3-7.4-7.3-7.4zM23.9 49.2c-1.2 0-2.2-1-2.2-2.2 0-1.2 1-2.2 2.2-2.2 1.2 0 2.2 1 2.2 2.2 0 1.2-1 2.2-2.2 2.2z"></path></g><!----><g data-v-423bf9ae="" id="bc99be9d-a612-4866-9a63-ae9f54f30988" fill="#ECDFCC" transform="matrix(0.502487301826477,0,0,0.502487301826477,91.03704071044922,59.75880813598633)"><path d="M0.83 10.82L0.83 10.82Q0.83 10.53 1.02 10.53L1.02 10.53Q1.20 10.53 1.25 10.67L1.25 10.67Q1.39 11.00 1.51 11.25Q1.62 11.49 1.89 11.85Q2.16 12.21 2.46 12.44Q2.77 12.67 3.25 12.84Q3.74 13.01 4.31 13.01L4.31 13.01Q5.36 13.01 6.00 12.45Q6.64 11.90 6.64 11.00L6.64 11.00Q6.64 10.35 6.20 9.90Q5.77 9.46 5.21 9.27Q4.65 9.09 3.79 8.77Q2.93 8.46 2.38 8.13L2.38 8.13Q1.11 7.38 1.11 6.08L1.11 6.08Q1.11 4.83 2.01 4.08Q2.91 3.33 4.35 3.33L4.35 3.33Q4.89 3.33 5.62 3.56Q6.36 3.79 6.37 3.79L6.37 3.79Q6.41 3.79 6.52 3.74Q6.64 3.68 6.69 3.68L6.69 3.68Q6.87 3.68 6.90 3.79L6.90 3.79Q7.20 5.49 7.20 5.70L7.20 5.70Q7.20 6.09 7 6.09L7 6.09Q6.87 6.09 6.80 5.89L6.80 5.89Q6.64 5.49 6.48 5.24Q6.31 4.98 6.24 4.91Q6.17 4.84 5.88 4.58L5.88 4.58Q5.12 3.91 4.05 3.91L4.05 3.91Q3.18 3.91 2.59 4.33Q2.00 4.75 2.00 5.46L2.00 5.46Q2.00 6.09 2.35 6.50Q2.69 6.90 3.26 7.13Q3.84 7.35 4.47 7.55Q5.10 7.74 5.80 8.09Q6.51 8.44 6.97 8.93L6.97 8.93Q7.53 9.53 7.53 10.43L7.53 10.43Q7.53 11.90 6.59 12.76Q5.66 13.62 4.27 13.62L4.27 13.62Q3.30 13.62 2.72 13.52Q2.13 13.41 1.51 13.09L1.51 13.09Q1.33 12.98 1.08 12.00Q0.83 11.02 0.83 10.82ZM15.62 3.68L15.62 3.68Q15.62 3.61 15.64 3.58Q15.65 3.56 15.72 3.53Q15.79 3.50 15.95 3.50Q16.10 3.50 16.59 3.53Q17.08 3.56 17.53 3.56L17.53 3.56Q17.81 3.56 18.04 3.54Q18.27 3.53 18.84 3.53L18.84 3.53Q19.14 3.53 19.14 3.72L19.14 3.72Q19.14 3.85 19.04 3.88Q18.94 3.91 18.79 3.92Q18.65 3.93 18.50 4.02Q18.35 4.10 18.26 4.43Q18.16 4.76 18.16 5.32L18.16 5.32L18.16 5.71Q18.16 6.37 18.15 7.37Q18.14 8.37 18.14 8.74L18.14 8.74Q18.14 9.17 18.15 9.39Q18.16 9.62 18.19 10.04Q18.21 10.47 18.26 10.72Q18.31 10.96 18.42 11.32Q18.54 11.68 18.70 11.89Q18.86 12.10 19.10 12.35Q19.35 12.60 19.67 12.73Q19.99 12.87 20.43 12.96Q20.86 13.05 21.39 13.05L21.39 13.05Q21.84 13.05 22.09 13.03Q22.34 13.02 22.79 12.94Q23.23 12.87 23.48 12.72Q23.74 12.57 24.07 12.27Q24.40 11.97 24.58 11.54Q24.77 11.10 24.89 10.43Q25.02 9.76 25.02 8.90L25.02 8.90Q25.02 7.49 25.01 6.75Q25.00 6.01 25.00 5.94L25.00 5.94Q25.00 5.45 24.98 5.17Q24.96 4.89 24.84 4.55Q24.72 4.21 24.50 4.06L24.50 4.06Q24.36 3.96 24.14 3.93Q23.91 3.89 23.77 3.87Q23.63 3.85 23.63 3.75L23.63 3.75Q23.63 3.53 23.91 3.53L23.91 3.53Q24.00 3.53 24.46 3.54Q24.92 3.56 24.99 3.56L24.99 3.56Q25.33 3.56 25.70 3.54Q26.08 3.51 26.18 3.51L26.18 3.51Q26.47 3.51 26.47 3.70L26.47 3.70Q26.47 3.81 26.17 3.98Q25.87 4.16 25.80 4.30L25.80 4.30Q25.65 4.59 25.65 5.22L25.65 5.22Q25.65 5.32 25.66 5.62Q25.66 5.92 25.66 6.16L25.66 6.16Q25.66 8.85 25.44 10.28Q25.21 11.70 24.76 12.36Q24.30 13.01 23.39 13.40L23.39 13.40Q22.65 13.71 21.39 13.71L21.39 13.71Q19.05 13.71 18.07 12.81L18.07 12.81Q17.30 12.10 17.12 11.09Q16.94 10.09 16.94 7.64L16.94 7.64L16.94 7.41Q16.94 6.86 16.95 6.20Q16.97 5.54 16.97 5.39L16.97 5.39Q16.97 4.62 16.79 4.33Q16.60 4.05 15.93 3.95L15.93 3.95Q15.62 3.91 15.62 3.68ZM33.21 13.33L33.21 13.33Q33.21 13.13 33.42 13.06L33.42 13.06Q33.87 12.89 34.20 12.31Q34.54 11.73 35.87 8.83L35.87 8.83Q37.24 5.87 38.29 3.63L38.29 3.63Q38.39 3.42 38.46 3.36Q38.54 3.30 38.71 3.30L38.71 3.30Q38.84 3.30 38.88 3.36Q38.92 3.42 39.06 3.82L39.06 3.82Q39.14 4.06 39.21 4.23Q39.27 4.40 39.41 4.77Q39.55 5.15 39.72 5.56L39.72 5.56Q40.17 6.66 41.27 9.22Q42.36 11.77 42.46 11.98L42.46 11.98Q42.70 12.46 42.99 12.71Q43.29 12.95 43.50 12.97Q43.72 12.99 43.87 13.04Q44.02 13.09 44.02 13.26L44.02 13.26Q44.02 13.47 43.64 13.47L43.64 13.47Q43.48 13.47 43.04 13.43Q42.59 13.38 42.38 13.38L42.38 13.38Q42.11 13.38 41.69 13.41Q41.27 13.44 41.08 13.44L41.08 13.44Q40.64 13.44 40.52 13.40Q40.40 13.37 40.40 13.24L40.40 13.24Q40.40 13.15 40.52 13.08Q40.63 13.02 40.75 13.00Q40.88 12.98 40.99 12.87Q41.10 12.77 41.10 12.59L41.10 12.59Q41.10 12.28 40.75 11.33Q40.40 10.37 40.17 9.93L40.17 9.93Q40.04 9.69 39.59 9.69L39.59 9.69Q39.52 9.69 38.98 9.70Q38.43 9.72 37.90 9.72L37.90 9.72L37.16 9.72Q36.53 9.72 36.36 9.79Q36.20 9.86 36.08 10.12L36.08 10.12Q35.99 10.30 35.80 10.70Q35.60 11.10 35.53 11.26Q35.46 11.41 35.36 11.65Q35.25 11.90 35.22 12.05Q35.18 12.19 35.18 12.31L35.18 12.31Q35.18 12.63 35.34 12.80Q35.50 12.96 35.70 12.98Q35.90 13.01 36.06 13.06Q36.22 13.12 36.22 13.26L36.22 13.26Q36.22 13.36 36.18 13.40Q36.13 13.45 35.98 13.45L35.98 13.45Q35.90 13.45 35.50 13.45Q35.10 13.44 34.82 13.44L34.82 13.44Q34.51 13.44 34.13 13.47Q33.74 13.50 33.61 13.50L33.61 13.50Q33.21 13.50 33.21 13.33ZM36.72 8.71L36.72 8.71Q36.72 8.89 36.85 8.93Q36.97 8.97 37.44 8.97L37.44 8.97L37.87 8.97L39.20 8.96Q39.75 8.96 39.75 8.74L39.75 8.74Q39.75 8.55 39.06 7.01Q38.37 5.46 38.19 5.46L38.19 5.46Q38.07 5.46 37.39 7.01Q36.72 8.55 36.72 8.71ZM61.56 13.33L61.56 13.33Q61.56 13.13 61.77 13.06L61.77 13.06Q62.22 12.89 62.55 12.31Q62.89 11.73 64.22 8.83L64.22 8.83Q65.59 5.87 66.64 3.63L66.64 3.63Q66.74 3.42 66.81 3.36Q66.89 3.30 67.06 3.30L67.06 3.30Q67.19 3.30 67.23 3.36Q67.27 3.42 67.41 3.82L67.41 3.82Q67.49 4.06 67.56 4.23Q67.62 4.40 67.76 4.77Q67.90 5.15 68.07 5.56L68.07 5.56Q68.52 6.66 69.61 9.22Q70.71 11.77 70.81 11.98L70.81 11.98Q71.05 12.46 71.34 12.71Q71.64 12.95 71.86 12.97Q72.07 12.99 72.22 13.04Q72.37 13.09 72.37 13.26L72.37 13.26Q72.37 13.47 71.99 13.47L71.99 13.47Q71.83 13.47 71.39 13.43Q70.94 13.38 70.73 13.38L70.73 13.38Q70.46 13.38 70.04 13.41Q69.62 13.44 69.43 13.44L69.43 13.44Q68.99 13.44 68.87 13.40Q68.75 13.37 68.75 13.24L68.75 13.24Q68.75 13.15 68.87 13.08Q68.98 13.02 69.10 13.00Q69.23 12.98 69.34 12.87Q69.45 12.77 69.45 12.59L69.45 12.59Q69.45 12.28 69.10 11.33Q68.75 10.37 68.52 9.93L68.52 9.93Q68.39 9.69 67.94 9.69L67.94 9.69Q67.87 9.69 67.33 9.70Q66.78 9.72 66.25 9.72L66.25 9.72L65.51 9.72Q64.88 9.72 64.72 9.79Q64.55 9.86 64.43 10.12L64.43 10.12Q64.34 10.30 64.15 10.70Q63.95 11.10 63.88 11.26Q63.81 11.41 63.71 11.65Q63.60 11.90 63.57 12.05Q63.53 12.19 63.53 12.31L63.53 12.31Q63.53 12.63 63.69 12.80Q63.85 12.96 64.05 12.98Q64.25 13.01 64.41 13.06Q64.57 13.12 64.57 13.26L64.57 13.26Q64.57 13.36 64.53 13.40Q64.48 13.45 64.33 13.45L64.33 13.45Q64.25 13.45 63.85 13.45Q63.45 13.44 63.17 13.44L63.17 13.44Q62.86 13.44 62.48 13.47Q62.09 13.50 61.96 13.50L61.96 13.50Q61.56 13.50 61.56 13.33ZM65.07 8.71L65.07 8.71Q65.07 8.89 65.20 8.93Q65.32 8.97 65.79 8.97L65.79 8.97L66.22 8.97L67.55 8.96Q68.10 8.96 68.10 8.74L68.10 8.74Q68.10 8.55 67.41 7.01Q66.72 5.46 66.54 5.46L66.54 5.46Q66.42 5.46 65.74 7.01Q65.07 8.55 65.07 8.71ZM78.69 5.32L78.69 5.32Q78.69 4.76 78.83 3.88L78.83 3.88Q78.83 3.85 78.84 3.78Q78.85 3.71 78.86 3.69Q78.86 3.67 78.87 3.62Q78.88 3.57 78.89 3.55Q78.90 3.53 78.92 3.49Q78.95 3.46 78.97 3.44Q79.00 3.43 79.04 3.42Q79.09 3.40 79.14 3.39Q79.20 3.39 79.27 3.39L79.27 3.39Q79.49 3.39 80.45 3.44Q81.41 3.50 83.22 3.50L83.22 3.50Q86.30 3.50 87.53 3.43L87.53 3.43Q87.54 3.43 87.58 3.42Q87.61 3.42 87.63 3.42L87.63 3.42Q87.78 3.42 87.84 3.50Q87.89 3.58 87.89 3.65L87.89 3.65Q87.89 3.75 87.93 4.24Q87.98 4.73 87.98 4.79L87.98 4.79Q87.98 5.14 87.93 5.23Q87.89 5.32 87.75 5.32L87.75 5.32Q87.64 5.32 87.60 5.15L87.60 5.15Q87.49 4.75 87.40 4.60Q87.32 4.45 87.04 4.34Q86.76 4.23 86.18 4.23L86.18 4.23L84.36 4.23Q84.03 4.23 83.95 4.36Q83.87 4.49 83.87 5.12L83.87 5.12L83.87 5.81Q83.87 7.69 83.85 9.11Q83.83 10.54 83.83 10.93L83.83 10.93Q83.83 11.13 83.83 11.43Q83.82 11.73 83.82 11.84L83.82 11.84Q83.82 12.45 84.01 12.64L84.01 12.64Q84.20 12.81 84.42 12.90Q84.64 12.99 84.81 13.01Q84.97 13.02 85.08 13.08Q85.19 13.13 85.19 13.26L85.19 13.26Q85.19 13.41 85.12 13.45Q85.05 13.50 84.85 13.50L84.85 13.50Q84.69 13.50 84.11 13.44Q83.54 13.38 83.30 13.38L83.30 13.38Q83.13 13.38 82.62 13.43Q82.11 13.48 81.87 13.48L81.87 13.48Q81.35 13.48 81.35 13.26L81.35 13.26Q81.35 13.12 81.44 13.07Q81.52 13.02 81.77 12.98Q82.01 12.95 82.08 12.94L82.08 12.94Q82.56 12.82 82.61 12.38L82.61 12.38Q82.75 11.14 82.75 7.08L82.75 7.08L82.74 4.58Q82.74 4.31 82.59 4.25Q82.43 4.19 81.68 4.19L81.68 4.19Q80.70 4.19 80.20 4.24Q79.70 4.30 79.62 4.35Q79.53 4.40 79.42 4.54L79.42 4.54Q79.30 4.70 79.22 4.91Q79.14 5.11 79.12 5.24Q79.10 5.38 79.04 5.47Q78.97 5.56 78.85 5.56L78.85 5.56Q78.69 5.56 78.69 5.32ZM95.54 3.71L95.54 3.71Q95.54 3.50 95.93 3.50L95.93 3.50Q96.07 3.50 96.57 3.53Q97.08 3.56 97.51 3.56L97.51 3.56Q97.78 3.56 98.02 3.54Q98.27 3.53 98.74 3.53L98.74 3.53Q99.12 3.53 99.12 3.72L99.12 3.72Q99.12 3.84 98.48 4.10L98.48 4.10Q98.03 4.28 98.03 5.71L98.03 5.71Q98.03 7.60 98.01 9.05Q97.99 10.50 97.99 10.89L97.99 10.89Q97.99 12.07 98.34 12.59L98.34 12.59Q98.64 13.02 99.01 13.02L99.01 13.02Q99.04 13.02 99.15 13.03Q99.26 13.03 99.29 13.03L99.29 13.03Q99.39 13.03 99.48 13.08Q99.58 13.13 99.58 13.19L99.58 13.19Q99.58 13.34 99.50 13.39Q99.43 13.44 99.23 13.44L99.23 13.44Q98.81 13.44 98.45 13.41Q98.10 13.38 97.90 13.38L97.90 13.38Q97.51 13.38 97.05 13.42Q96.59 13.45 96.36 13.45L96.36 13.45Q95.73 13.45 95.73 13.24L95.73 13.24Q95.73 13.12 95.86 13.07Q96.00 13.02 96.17 13.00Q96.33 12.98 96.52 12.82Q96.70 12.66 96.77 12.35L96.77 12.35Q96.80 12.25 96.86 10.76Q96.92 9.27 96.92 8.61L96.92 8.61L96.92 7.81Q96.92 7.63 96.93 7.12Q96.94 6.61 96.94 6.30L96.94 6.30L96.94 5.66Q96.94 5.04 96.88 4.63L96.88 4.63Q96.84 4.30 96.51 4.12Q96.18 3.93 95.83 3.92L95.83 3.92Q95.54 3.91 95.54 3.71ZM107.13 3.70L107.13 3.70Q107.13 3.50 107.52 3.50L107.52 3.50Q107.59 3.50 108.06 3.53Q108.53 3.56 109.06 3.56L109.06 3.56Q109.19 3.56 109.50 3.54Q109.82 3.53 109.97 3.53L109.97 3.53Q110.29 3.53 110.36 3.56Q110.43 3.58 110.43 3.68L110.43 3.68Q110.43 3.77 110.29 3.84Q110.15 3.91 110.00 4.02Q109.86 4.14 109.86 4.34L109.86 4.34Q109.86 4.52 109.91 4.71Q109.96 4.90 110.12 5.29Q110.29 5.68 110.47 6.08Q110.64 6.47 111.04 7.34Q111.44 8.22 111.82 9.07L111.82 9.07Q112.99 11.77 113.22 11.77L113.22 11.77Q113.29 11.77 114.02 10.08Q114.76 8.39 115.47 6.54Q116.19 4.69 116.19 4.35L116.19 4.35Q116.19 4.13 116.03 4.01Q115.86 3.89 115.68 3.87Q115.50 3.85 115.34 3.80Q115.18 3.75 115.18 3.64L115.18 3.64Q115.18 3.54 115.23 3.52Q115.28 3.50 115.47 3.50L115.47 3.50Q115.51 3.50 115.79 3.51Q116.07 3.51 116.35 3.51L116.35 3.51Q116.61 3.51 116.92 3.50Q117.24 3.49 117.60 3.49L117.60 3.49Q117.87 3.49 117.87 3.68L117.87 3.68Q117.87 3.78 117.78 3.85Q117.68 3.92 117.56 3.98Q117.43 4.03 117.26 4.21Q117.10 4.40 116.97 4.69L116.97 4.69L113.85 11.80Q113.51 12.56 113.19 13.34L113.19 13.34Q113.04 13.72 112.99 13.79Q112.95 13.86 112.88 13.86L112.88 13.86Q112.63 13.86 112.25 12.89L112.25 12.89Q111.89 11.98 110.81 9.65L110.81 9.65Q110.28 8.48 109.84 7.50Q109.41 6.52 109.22 6.06Q109.03 5.60 108.87 5.24Q108.71 4.87 108.63 4.72Q108.54 4.56 108.43 4.44L108.43 4.44Q108.19 4.17 107.93 4.06Q107.67 3.95 107.51 3.96Q107.35 3.96 107.24 3.91Q107.13 3.86 107.13 3.70ZM125.43 3.71L125.43 3.71Q125.43 3.50 125.82 3.50L125.82 3.50Q125.96 3.50 126.46 3.53Q126.97 3.56 127.40 3.56L127.40 3.56Q127.67 3.56 127.91 3.54Q128.16 3.53 128.63 3.53L128.63 3.53Q129.01 3.53 129.01 3.72L129.01 3.72Q129.01 3.84 128.37 4.10L128.37 4.10Q127.92 4.28 127.92 5.71L127.92 5.71Q127.92 7.60 127.90 9.05Q127.88 10.50 127.88 10.89L127.88 10.89Q127.88 12.07 128.23 12.59L128.23 12.59Q128.53 13.02 128.90 13.02L128.90 13.02Q128.93 13.02 129.04 13.03Q129.15 13.03 129.18 13.03L129.18 13.03Q129.28 13.03 129.37 13.08Q129.47 13.13 129.47 13.19L129.47 13.19Q129.47 13.34 129.40 13.39Q129.32 13.44 129.12 13.44L129.12 13.44Q128.70 13.44 128.34 13.41Q127.99 13.38 127.79 13.38L127.79 13.38Q127.40 13.38 126.94 13.42Q126.48 13.45 126.25 13.45L126.25 13.45Q125.62 13.45 125.62 13.24L125.62 13.24Q125.62 13.12 125.75 13.07Q125.89 13.02 126.06 13.00Q126.22 12.98 126.41 12.82Q126.59 12.66 126.66 12.35L126.66 12.35Q126.69 12.25 126.75 10.76Q126.81 9.27 126.81 8.61L126.81 8.61L126.81 7.81Q126.81 7.63 126.82 7.12Q126.83 6.61 126.83 6.30L126.83 6.30L126.83 5.66Q126.83 5.04 126.77 4.63L126.77 4.63Q126.73 4.30 126.40 4.12Q126.07 3.93 125.72 3.92L125.72 3.92Q125.43 3.91 125.43 3.71ZM137.02 3.64L137.02 3.64Q137.02 3.51 137.14 3.49Q137.26 3.47 137.73 3.47L137.73 3.47L138.95 3.47Q139.30 3.47 140.24 3.44Q141.18 3.42 141.68 3.42L141.68 3.42Q142.65 3.42 143.61 3.71Q144.58 4.00 145.39 4.56Q146.20 5.11 146.71 6.00Q147.21 6.89 147.21 7.98L147.21 7.98Q147.21 8.96 147.08 9.68Q146.94 10.40 146.64 10.93Q146.33 11.45 146.02 11.78Q145.71 12.11 145.18 12.56L145.18 12.56Q144.76 12.89 143.96 13.19Q143.16 13.48 142.32 13.48L142.32 13.48Q142.24 13.48 140.90 13.45Q139.55 13.41 138.96 13.41L138.96 13.41Q138.47 13.41 138.05 13.45Q137.63 13.48 137.56 13.48L137.56 13.48Q137.23 13.48 137.23 13.30L137.23 13.30Q137.23 13.19 137.28 13.14Q137.33 13.09 137.49 13.05Q137.65 13.01 137.72 12.98L137.72 12.98Q137.94 12.88 138.13 12.61Q138.32 12.33 138.32 12.07L138.32 12.07Q138.32 11.28 138.33 10.07Q138.33 8.85 138.33 8.27L138.33 8.27Q138.33 7.77 138.33 6.70Q138.32 5.63 138.32 4.72L138.32 4.72Q138.32 4.48 138.09 4.23Q137.86 3.99 137.58 3.98L137.58 3.98Q137.38 3.96 137.29 3.95Q137.20 3.93 137.11 3.86Q137.02 3.78 137.02 3.64ZM139.50 11.47L139.50 11.47Q139.50 11.73 139.50 11.90Q139.51 12.07 139.56 12.21Q139.61 12.35 139.64 12.40Q139.66 12.46 139.80 12.53Q139.94 12.60 140.02 12.62Q140.10 12.64 140.35 12.71Q140.60 12.78 140.77 12.82L140.77 12.82Q141.26 12.96 141.79 12.96L141.79 12.96L142.07 12.96Q143.02 12.96 143.70 12.69Q144.37 12.42 144.98 11.83L144.98 11.83Q146.02 10.84 146.02 8.61L146.02 8.61Q146.02 7.49 145.58 6.58Q145.14 5.67 144.42 5.13Q143.71 4.59 142.88 4.30Q142.06 4.02 141.22 4.02L141.22 4.02Q140.84 4.02 140.66 4.02Q140.49 4.02 140.26 4.05Q140.03 4.09 139.95 4.11Q139.87 4.13 139.76 4.25Q139.65 4.37 139.63 4.45Q139.61 4.54 139.57 4.78Q139.54 5.03 139.54 5.21Q139.54 5.39 139.54 5.80L139.54 5.80Q139.54 6.10 139.52 7.24Q139.51 8.39 139.51 8.48L139.51 8.48Q139.51 9.32 139.50 10.30Q139.50 11.28 139.50 11.47ZM154.42 13.33L154.42 13.33Q154.42 13.13 154.63 13.06L154.63 13.06Q155.08 12.89 155.41 12.31Q155.75 11.73 157.08 8.83L157.08 8.83Q158.45 5.87 159.50 3.63L159.50 3.63Q159.60 3.42 159.68 3.36Q159.75 3.30 159.92 3.30L159.92 3.30Q160.05 3.30 160.09 3.36Q160.13 3.42 160.27 3.82L160.27 3.82Q160.36 4.06 160.42 4.23Q160.48 4.40 160.62 4.77Q160.76 5.15 160.93 5.56L160.93 5.56Q161.38 6.66 162.48 9.22Q163.58 11.77 163.67 11.98L163.67 11.98Q163.91 12.46 164.21 12.71Q164.50 12.95 164.72 12.97Q164.93 12.99 165.08 13.04Q165.23 13.09 165.23 13.26L165.23 13.26Q165.23 13.47 164.85 13.47L164.85 13.47Q164.70 13.47 164.25 13.43Q163.80 13.38 163.59 13.38L163.59 13.38Q163.32 13.38 162.90 13.41Q162.48 13.44 162.29 13.44L162.29 13.44Q161.85 13.44 161.73 13.40Q161.62 13.37 161.62 13.24L161.62 13.24Q161.62 13.15 161.73 13.08Q161.84 13.02 161.97 13.00Q162.09 12.98 162.20 12.87Q162.32 12.77 162.32 12.59L162.32 12.59Q162.32 12.28 161.97 11.33Q161.62 10.37 161.38 9.93L161.38 9.93Q161.25 9.69 160.80 9.69L160.80 9.69Q160.73 9.69 160.19 9.70Q159.64 9.72 159.11 9.72L159.11 9.72L158.37 9.72Q157.74 9.72 157.58 9.79Q157.42 9.86 157.29 10.12L157.29 10.12Q157.21 10.30 157.01 10.70Q156.81 11.10 156.74 11.26Q156.67 11.41 156.57 11.65Q156.46 11.90 156.43 12.05Q156.39 12.19 156.39 12.31L156.39 12.31Q156.39 12.63 156.55 12.80Q156.72 12.96 156.91 12.98Q157.11 13.01 157.27 13.06Q157.43 13.12 157.43 13.26L157.43 13.26Q157.43 13.36 157.39 13.40Q157.35 13.45 157.19 13.45L157.19 13.45Q157.11 13.45 156.71 13.45Q156.31 13.44 156.03 13.44L156.03 13.44Q155.72 13.44 155.34 13.47Q154.95 13.50 154.83 13.50L154.83 13.50Q154.42 13.50 154.42 13.33ZM157.93 8.71L157.93 8.71Q157.93 8.89 158.06 8.93Q158.19 8.97 158.65 8.97L158.65 8.97L159.08 8.97L160.41 8.96Q160.96 8.96 160.96 8.74L160.96 8.74Q160.96 8.55 160.27 7.01Q159.59 5.46 159.40 5.46L159.40 5.46Q159.28 5.46 158.61 7.01Q157.93 8.55 157.93 8.71ZM172.79 3.64L172.79 3.64Q172.79 3.51 172.91 3.49Q173.03 3.47 173.50 3.47L173.50 3.47L174.72 3.47Q175.07 3.47 176.01 3.44Q176.95 3.42 177.45 3.42L177.45 3.42Q178.42 3.42 179.38 3.71Q180.35 4.00 181.16 4.56Q181.97 5.11 182.48 6.00Q182.98 6.89 182.98 7.98L182.98 7.98Q182.98 8.96 182.85 9.68Q182.71 10.40 182.41 10.93Q182.10 11.45 181.79 11.78Q181.48 12.11 180.95 12.56L180.95 12.56Q180.53 12.89 179.73 13.19Q178.93 13.48 178.09 13.48L178.09 13.48Q178.01 13.48 176.67 13.45Q175.32 13.41 174.73 13.41L174.73 13.41Q174.24 13.41 173.82 13.45Q173.40 13.48 173.33 13.48L173.33 13.48Q173.00 13.48 173.00 13.30L173.00 13.30Q173.00 13.19 173.05 13.14Q173.10 13.09 173.26 13.05Q173.42 13.01 173.49 12.98L173.49 12.98Q173.71 12.88 173.90 12.61Q174.09 12.33 174.09 12.07L174.09 12.07Q174.09 11.28 174.10 10.07Q174.10 8.85 174.10 8.27L174.10 8.27Q174.10 7.77 174.10 6.70Q174.09 5.63 174.09 4.72L174.09 4.72Q174.09 4.48 173.86 4.23Q173.63 3.99 173.35 3.98L173.35 3.98Q173.15 3.96 173.06 3.95Q172.97 3.93 172.88 3.86Q172.79 3.78 172.79 3.64ZM175.27 11.47L175.27 11.47Q175.27 11.73 175.27 11.90Q175.28 12.07 175.33 12.21Q175.38 12.35 175.41 12.40Q175.43 12.46 175.57 12.53Q175.71 12.60 175.79 12.62Q175.87 12.64 176.12 12.71Q176.37 12.78 176.54 12.82L176.54 12.82Q177.03 12.96 177.56 12.96L177.56 12.96L177.84 12.96Q178.79 12.96 179.47 12.69Q180.14 12.42 180.75 11.83L180.75 11.83Q181.79 10.84 181.79 8.61L181.79 8.61Q181.79 7.49 181.35 6.58Q180.91 5.67 180.19 5.13Q179.48 4.59 178.65 4.30Q177.83 4.02 176.99 4.02L176.99 4.02Q176.61 4.02 176.43 4.02Q176.26 4.02 176.03 4.05Q175.80 4.09 175.72 4.11Q175.64 4.13 175.53 4.25Q175.42 4.37 175.40 4.45Q175.38 4.54 175.34 4.78Q175.31 5.03 175.31 5.21Q175.31 5.39 175.31 5.80L175.31 5.80Q175.31 6.10 175.29 7.24Q175.28 8.39 175.28 8.48L175.28 8.48Q175.28 9.32 175.27 10.30Q175.27 11.28 175.27 11.47ZM190.88 3.65L190.88 3.65Q190.88 3.46 191.27 3.46L191.27 3.46Q191.32 3.46 191.45 3.47Q191.58 3.49 191.65 3.49L191.65 3.49Q191.69 3.49 192.96 3.52Q194.24 3.56 195.06 3.56L195.06 3.56Q195.36 3.56 196.51 3.53Q197.67 3.50 197.86 3.50L197.86 3.50Q198.13 3.50 198.13 3.82L198.13 3.82Q198.13 3.91 198.04 4.38Q197.96 4.84 197.96 5.25L197.96 5.25Q197.96 5.38 197.89 5.47Q197.82 5.56 197.74 5.56L197.74 5.56Q197.53 5.56 197.53 5.26L197.53 5.26Q197.53 4.89 197.29 4.58Q197.05 4.27 196.70 4.26L196.70 4.26Q195.44 4.16 194.77 4.16L194.77 4.16L194.40 4.16Q193.68 4.16 193.56 4.26Q193.44 4.37 193.41 5.01L193.41 5.01Q193.35 6.02 193.35 7.35L193.35 7.35Q193.35 8.05 193.62 8.06L193.62 8.06L193.97 8.06L194.56 8.06L194.99 8.06Q195.83 8.06 196.11 8.01Q196.39 7.95 196.62 7.80L196.62 7.80Q196.88 7.62 196.94 7.28L196.94 7.28Q196.98 7.04 197.13 7.04L197.13 7.04Q197.26 7.04 197.29 7.08Q197.32 7.13 197.32 7.27L197.32 7.27Q197.32 7.36 197.26 7.91Q197.20 8.46 197.20 8.74L197.20 8.74Q197.20 9.00 197.22 9.24Q197.25 9.48 197.25 9.59L197.25 9.59Q197.25 9.94 197.15 9.94L197.15 9.94Q196.94 9.94 196.84 9.60L196.84 9.60Q196.64 9.02 196.49 8.92L196.49 8.92Q196.20 8.72 195.15 8.72L195.15 8.72Q194.73 8.72 194.47 8.72Q194.21 8.72 194.13 8.71Q194.05 8.71 194.00 8.71Q193.96 8.71 193.91 8.71L193.91 8.71Q193.34 8.71 193.34 8.97L193.34 8.97Q193.34 9.38 193.33 9.99Q193.31 10.60 193.31 10.99L193.31 10.99L193.31 11.55Q193.31 12.56 193.65 12.66L193.65 12.66Q194.00 12.77 194.25 12.77L194.25 12.77Q195.30 12.77 196.09 12.67Q196.88 12.57 197.28 12.42Q197.68 12.28 197.95 12.10Q198.21 11.93 198.29 11.78Q198.37 11.63 198.44 11.54Q198.52 11.44 198.60 11.44L198.60 11.44Q198.77 11.44 198.77 11.68L198.77 11.68Q198.77 12.28 198.17 12.89Q197.57 13.51 197.12 13.51L197.12 13.51Q196.11 13.51 194.84 13.44Q193.58 13.37 193.27 13.37L193.27 13.37Q192.88 13.37 192.29 13.43Q191.70 13.50 191.37 13.50L191.37 13.50Q191.07 13.50 191.07 13.36L191.07 13.36Q191.07 13.23 191.07 13.19Q191.07 13.15 191.11 13.12Q191.16 13.09 191.20 13.08Q191.25 13.08 191.39 13.03Q191.52 12.99 191.67 12.92L191.67 12.92Q192.01 12.75 192.11 12.26Q192.22 11.77 192.22 10.21L192.22 10.21L192.22 8.47Q192.22 8.09 192.24 7.29Q192.26 6.50 192.26 6.05L192.26 6.05Q192.26 5.67 192.23 4.77L192.23 4.77Q192.22 4.37 191.88 4.14Q191.55 3.92 191.10 3.91L191.10 3.91Q190.88 3.91 190.88 3.65ZM216.31 3.77L216.31 3.77Q216.31 3.68 216.41 3.60Q216.51 3.53 216.66 3.53L216.66 3.53Q216.75 3.53 216.94 3.54Q217.14 3.54 217.20 3.54L217.20 3.54Q217.41 3.54 217.59 3.53Q217.77 3.51 217.88 3.51L217.88 3.51Q218.01 3.51 218.18 3.59Q218.34 3.67 218.37 3.75L218.37 3.75Q218.40 3.79 218.53 3.94Q218.65 4.09 218.86 4.33Q219.07 4.56 219.24 4.79L219.24 4.79Q221.14 7.27 224.34 10.77L224.34 10.77Q224.42 10.86 224.54 10.99Q224.66 11.12 224.71 11.18Q224.76 11.24 224.81 11.30Q224.87 11.35 224.90 11.38Q224.94 11.40 224.97 11.40L224.97 11.40Q225.11 11.40 225.11 10.53L225.11 10.53L225.11 8.89Q225.11 7.95 225.10 7.31Q225.09 6.66 225.08 6.38Q225.08 6.09 225.08 6.02L225.08 6.02L225.08 5.92Q225.08 5.45 225.01 5.11Q224.95 4.77 224.87 4.59Q224.78 4.41 224.62 4.28Q224.46 4.16 224.35 4.12Q224.24 4.09 224.03 4.05Q223.82 4.00 223.73 3.98L223.73 3.98Q223.45 3.89 223.45 3.74L223.45 3.74Q223.45 3.53 223.72 3.53L223.72 3.53Q223.80 3.53 224.39 3.54Q224.98 3.54 225.05 3.54L225.05 3.54Q225.39 3.54 225.80 3.53Q226.21 3.51 226.31 3.51L226.31 3.51Q226.55 3.51 226.64 3.56Q226.73 3.61 226.73 3.75L226.73 3.75Q226.73 3.81 226.65 3.86Q226.58 3.91 226.49 3.94Q226.41 3.98 226.32 4.00L226.32 4.00L226.24 4.03Q225.78 4.28 225.78 5.61L225.78 5.61L225.78 6.15Q225.78 7.21 225.70 9.83Q225.62 12.46 225.62 13.08L225.62 13.08L225.62 13.36Q225.62 13.68 225.43 13.68L225.43 13.68Q225.30 13.68 225.20 13.58L225.20 13.58Q220.56 8.19 219.65 7.17Q218.75 6.16 218.65 6.16L218.65 6.16Q218.51 6.16 218.51 7.11L218.51 7.11Q218.51 8.44 218.46 9.97Q218.40 11.51 218.40 11.65L218.40 11.65Q218.40 12.28 218.62 12.61Q218.83 12.94 219.09 12.98Q219.34 13.02 219.55 13.07Q219.77 13.12 219.77 13.26L219.77 13.26Q219.77 13.41 219.72 13.45Q219.67 13.50 219.55 13.50L219.55 13.50Q219.45 13.50 219.11 13.48Q218.76 13.47 218.05 13.47L218.05 13.47Q217.92 13.47 217.53 13.48Q217.14 13.50 216.86 13.50L216.86 13.50Q216.55 13.50 216.55 13.27L216.55 13.27Q216.55 13.15 216.73 13.11Q216.92 13.08 217.18 12.89Q217.45 12.71 217.59 12.21L217.59 12.21Q217.67 11.89 217.80 9.60Q217.92 7.32 217.92 6.45L217.92 6.45Q217.92 5.25 217.59 4.65Q217.25 4.06 216.50 3.98L216.50 3.98Q216.31 3.96 216.31 3.77ZM234.29 13.33L234.29 13.33Q234.29 13.13 234.50 13.06L234.50 13.06Q234.95 12.89 235.28 12.31Q235.62 11.73 236.95 8.83L236.95 8.83Q238.32 5.87 239.37 3.63L239.37 3.63Q239.47 3.42 239.55 3.36Q239.62 3.30 239.79 3.30L239.79 3.30Q239.92 3.30 239.96 3.36Q240.00 3.42 240.14 3.82L240.14 3.82Q240.23 4.06 240.29 4.23Q240.35 4.40 240.49 4.77Q240.63 5.15 240.80 5.56L240.80 5.56Q241.25 6.66 242.35 9.22Q243.45 11.77 243.54 11.98L243.54 11.98Q243.78 12.46 244.08 12.71Q244.37 12.95 244.59 12.97Q244.80 12.99 244.95 13.04Q245.10 13.09 245.10 13.26L245.10 13.26Q245.10 13.47 244.72 13.47L244.72 13.47Q244.57 13.47 244.12 13.43Q243.67 13.38 243.46 13.38L243.46 13.38Q243.19 13.38 242.77 13.41Q242.35 13.44 242.16 13.44L242.16 13.44Q241.72 13.44 241.60 13.40Q241.49 13.37 241.49 13.24L241.49 13.24Q241.49 13.15 241.60 13.08Q241.71 13.02 241.84 13.00Q241.96 12.98 242.07 12.87Q242.19 12.77 242.19 12.59L242.19 12.59Q242.19 12.28 241.84 11.33Q241.49 10.37 241.25 9.93L241.25 9.93Q241.12 9.69 240.67 9.69L240.67 9.69Q240.60 9.69 240.06 9.70Q239.51 9.72 238.98 9.72L238.98 9.72L238.24 9.72Q237.61 9.72 237.45 9.79Q237.29 9.86 237.16 10.12L237.16 10.12Q237.08 10.30 236.88 10.70Q236.68 11.10 236.61 11.26Q236.54 11.41 236.44 11.65Q236.33 11.90 236.30 12.05Q236.26 12.19 236.26 12.31L236.26 12.31Q236.26 12.63 236.42 12.80Q236.59 12.96 236.78 12.98Q236.98 13.01 237.14 13.06Q237.30 13.12 237.30 13.26L237.30 13.26Q237.30 13.36 237.26 13.40Q237.22 13.45 237.06 13.45L237.06 13.45Q236.98 13.45 236.58 13.45Q236.18 13.44 235.90 13.44L235.90 13.44Q235.59 13.44 235.21 13.47Q234.82 13.50 234.70 13.50L234.70 13.50Q234.29 13.50 234.29 13.33ZM237.80 8.71L237.80 8.71Q237.80 8.89 237.93 8.93Q238.06 8.97 238.52 8.97L238.52 8.97L238.95 8.97L240.28 8.96Q240.83 8.96 240.83 8.74L240.83 8.74Q240.83 8.55 240.14 7.01Q239.46 5.46 239.27 5.46L239.27 5.46Q239.15 5.46 238.48 7.01Q237.80 8.55 237.80 8.71ZM262.64 3.71L262.64 3.71Q262.64 3.51 263.02 3.51L263.02 3.51Q263.10 3.51 263.56 3.54Q264.01 3.56 264.56 3.56L264.56 3.56Q264.95 3.56 265.34 3.54Q265.73 3.51 265.76 3.51L265.76 3.51Q265.89 3.51 265.92 3.55Q265.96 3.58 265.96 3.68L265.96 3.68Q265.96 3.77 265.66 3.92Q265.36 4.07 265.36 4.34L265.36 4.34Q265.36 4.47 265.41 4.65Q265.47 4.83 265.64 5.22Q265.80 5.61 265.99 6.03Q266.18 6.45 266.57 7.33Q266.97 8.20 267.34 9.07L267.34 9.07Q267.44 9.30 267.63 9.74Q267.82 10.18 267.94 10.46Q268.06 10.74 268.20 11.05Q268.34 11.37 268.43 11.52Q268.52 11.68 268.56 11.68L268.56 11.68Q268.62 11.68 269.01 10.81Q269.40 9.94 269.71 9.17L269.71 9.17Q269.77 9.04 269.84 8.89Q269.92 8.74 269.95 8.63Q269.99 8.53 269.99 8.41L269.99 8.41Q269.99 8.25 269.15 6.36Q268.31 4.48 268.07 4.21L268.07 4.21Q268.02 4.14 267.96 4.10Q267.90 4.06 267.85 4.02Q267.81 3.99 267.77 3.97Q267.74 3.95 267.68 3.94Q267.62 3.93 267.60 3.93Q267.58 3.93 267.52 3.93Q267.46 3.92 267.44 3.92L267.44 3.92Q267.05 3.88 266.97 3.84Q266.88 3.81 266.88 3.70L266.88 3.70Q266.88 3.50 267.29 3.50L267.29 3.50Q267.37 3.50 267.83 3.53Q268.30 3.56 268.83 3.56L268.83 3.56Q268.86 3.56 269.21 3.53Q269.56 3.50 269.75 3.50L269.75 3.50Q270.17 3.50 270.17 3.61L270.17 3.61Q270.17 3.70 270.02 3.78Q269.86 3.86 269.72 4.00Q269.57 4.13 269.57 4.33L269.57 4.33Q269.57 4.59 270.00 5.57L270.00 5.57Q270.03 5.63 270.19 6.03Q270.35 6.44 270.48 6.71Q270.61 6.99 270.66 6.99L270.66 6.99Q270.77 6.99 271.22 5.76Q271.67 4.54 271.67 4.31L271.67 4.31Q271.67 4.06 271.46 3.96Q271.25 3.85 271.04 3.80Q270.83 3.75 270.83 3.64L270.83 3.64Q270.83 3.49 271.14 3.49L271.14 3.49Q271.22 3.49 271.56 3.50Q271.89 3.51 272.03 3.51L272.03 3.51L272.27 3.51Q272.47 3.51 273.01 3.47L273.01 3.47L273.14 3.47Q273.32 3.47 273.32 3.61Q273.32 3.75 273.06 3.84Q272.79 3.92 272.69 4.02L272.69 4.02Q272.47 4.24 272.30 4.66L272.30 4.66Q272.01 5.38 271.60 6.33L271.60 6.33Q271.18 7.31 271.11 7.50Q271.04 7.70 271.04 7.85L271.04 7.85Q271.04 7.97 271.89 9.87Q272.75 11.77 272.90 11.77L272.90 11.77Q273.07 11.77 274.53 8.24Q276.00 4.70 276.00 4.35L276.00 4.35Q276.00 4.13 275.83 4.01Q275.67 3.89 275.48 3.87Q275.28 3.85 275.12 3.80Q274.96 3.75 274.96 3.64L274.96 3.64Q274.96 3.54 275.00 3.52Q275.04 3.50 275.23 3.50L275.23 3.50Q275.27 3.50 275.55 3.51Q275.83 3.51 276.11 3.51L276.11 3.51Q276.36 3.51 276.67 3.50Q276.99 3.49 277.35 3.49L277.35 3.49Q277.63 3.49 277.63 3.68L277.63 3.68Q277.63 3.78 277.56 3.84Q277.48 3.89 277.33 3.98Q277.17 4.06 277.06 4.17L277.06 4.17Q276.99 4.24 276.94 4.31Q276.89 4.38 276.84 4.49Q276.78 4.59 276.74 4.66Q276.71 4.73 276.63 4.91Q276.56 5.08 276.51 5.18L276.51 5.18Q275.44 7.59 274.11 10.58L274.11 10.58Q273.04 13.01 272.85 13.41Q272.65 13.82 272.54 13.82L272.54 13.82Q272.47 13.82 272.37 13.64Q272.27 13.47 272.10 13.05Q271.92 12.64 271.89 12.57L271.89 12.57Q271.75 12.26 271.52 11.72Q271.29 11.17 271.13 10.79Q270.97 10.42 270.80 10.02Q270.63 9.63 270.52 9.43Q270.41 9.23 270.37 9.23L270.37 9.23Q270.23 9.23 269.42 11.16Q268.62 13.09 268.56 13.31L268.56 13.31Q268.55 13.37 268.53 13.43Q268.51 13.48 268.49 13.52Q268.48 13.57 268.46 13.61Q268.45 13.65 268.44 13.68Q268.42 13.71 268.41 13.73Q268.41 13.76 268.39 13.78Q268.38 13.80 268.37 13.82Q268.35 13.83 268.34 13.84Q268.32 13.85 268.31 13.85Q268.30 13.86 268.27 13.86L268.27 13.86Q268.14 13.86 267.96 13.46Q267.78 13.06 267.30 11.89Q266.83 10.72 266.34 9.65L266.34 9.65Q265.52 7.87 264.61 5.63L264.61 5.63Q264.35 4.96 264.04 4.57Q263.73 4.19 263.49 4.09Q263.26 3.99 263.06 3.98Q262.86 3.96 262.75 3.92Q262.64 3.88 262.64 3.71ZM285.18 3.65L285.18 3.65Q285.18 3.46 285.57 3.46L285.57 3.46Q285.63 3.46 285.75 3.47Q285.88 3.49 285.95 3.49L285.95 3.49Q285.99 3.49 287.27 3.52Q288.54 3.56 289.37 3.56L289.37 3.56Q289.66 3.56 290.81 3.53Q291.97 3.50 292.17 3.50L292.17 3.50Q292.43 3.50 292.43 3.82L292.43 3.82Q292.43 3.91 292.35 4.38Q292.26 4.84 292.26 5.25L292.26 5.25Q292.26 5.38 292.19 5.47Q292.12 5.56 292.04 5.56L292.04 5.56Q291.83 5.56 291.83 5.26L291.83 5.26Q291.83 4.89 291.59 4.58Q291.35 4.27 291.00 4.26L291.00 4.26Q289.74 4.16 289.07 4.16L289.07 4.16L288.71 4.16Q287.98 4.16 287.86 4.26Q287.74 4.37 287.71 5.01L287.71 5.01Q287.66 6.02 287.66 7.35L287.66 7.35Q287.66 8.05 287.92 8.06L287.92 8.06L288.27 8.06L288.86 8.06L289.30 8.06Q290.14 8.06 290.42 8.01Q290.70 7.95 290.92 7.80L290.92 7.80Q291.19 7.62 291.24 7.28L291.24 7.28Q291.28 7.04 291.44 7.04L291.44 7.04Q291.56 7.04 291.59 7.08Q291.62 7.13 291.62 7.27L291.62 7.27Q291.62 7.36 291.56 7.91Q291.51 8.46 291.51 8.74L291.51 8.74Q291.51 9.00 291.53 9.24Q291.55 9.48 291.55 9.59L291.55 9.59Q291.55 9.94 291.45 9.94L291.45 9.94Q291.24 9.94 291.14 9.60L291.14 9.60Q290.95 9.02 290.79 8.92L290.79 8.92Q290.50 8.72 289.45 8.72L289.45 8.72Q289.03 8.72 288.77 8.72Q288.51 8.72 288.44 8.71Q288.36 8.71 288.31 8.71Q288.26 8.71 288.22 8.71L288.22 8.71Q287.64 8.71 287.64 8.97L287.64 8.97Q287.64 9.38 287.63 9.99Q287.62 10.60 287.62 10.99L287.62 10.99L287.62 11.55Q287.62 12.56 287.95 12.66L287.95 12.66Q288.30 12.77 288.55 12.77L288.55 12.77Q289.60 12.77 290.39 12.67Q291.19 12.57 291.58 12.42Q291.98 12.28 292.25 12.10Q292.52 11.93 292.59 11.78Q292.67 11.63 292.75 11.54Q292.82 11.44 292.91 11.44L292.91 11.44Q293.08 11.44 293.08 11.68L293.08 11.68Q293.08 12.28 292.47 12.89Q291.87 13.51 291.42 13.51L291.42 13.51Q290.42 13.51 289.15 13.44Q287.88 13.37 287.57 13.37L287.57 13.37Q287.18 13.37 286.59 13.43Q286.01 13.50 285.67 13.50L285.67 13.50Q285.38 13.50 285.38 13.36L285.38 13.36Q285.38 13.23 285.38 13.19Q285.38 13.15 285.42 13.12Q285.46 13.09 285.51 13.08Q285.56 13.08 285.69 13.03Q285.82 12.99 285.98 12.92L285.98 12.92Q286.31 12.75 286.42 12.26Q286.52 11.77 286.52 10.21L286.52 10.21L286.52 8.47Q286.52 8.09 286.54 7.29Q286.57 6.50 286.57 6.05L286.57 6.05Q286.57 5.67 286.54 4.77L286.54 4.77Q286.52 4.37 286.19 4.14Q285.85 3.92 285.40 3.91L285.40 3.91Q285.18 3.91 285.18 3.65ZM300.64 3.72L300.64 3.72Q300.64 3.51 300.76 3.51L300.76 3.51Q300.80 3.51 300.94 3.52Q301.08 3.53 301.32 3.53L301.32 3.53Q301.60 3.53 302.44 3.52Q303.27 3.51 303.37 3.51L303.37 3.51Q303.69 3.51 304.18 3.49Q304.67 3.47 304.91 3.47L304.91 3.47Q306.18 3.47 307.03 4.08Q307.89 4.69 307.89 5.81L307.89 5.81Q307.89 6.22 307.74 6.57Q307.59 6.93 307.39 7.15Q307.19 7.38 306.99 7.54Q306.78 7.70 306.63 7.79Q306.49 7.88 306.49 7.90L306.49 7.90Q306.49 7.94 306.73 8.00Q306.96 8.06 307.30 8.21Q307.64 8.36 307.96 8.61Q308.29 8.86 308.53 9.36Q308.77 9.86 308.77 10.53L308.77 10.53Q308.77 11.13 308.42 11.82Q308.07 12.50 307.59 12.82L307.59 12.82Q306.98 13.26 306.45 13.40Q305.91 13.55 305.16 13.55L305.16 13.55Q304.60 13.55 303.67 13.47Q302.75 13.40 302.65 13.40L302.65 13.40Q302.50 13.40 302.10 13.43Q301.70 13.45 301.45 13.45L301.45 13.45L301.25 13.45Q300.96 13.45 300.96 13.24L300.96 13.24Q300.96 13.05 301.11 13.05L301.11 13.05Q301.20 13.05 301.29 13.04Q301.39 13.03 301.43 13.03L301.43 13.03Q301.56 13.03 301.68 12.94Q301.80 12.85 301.92 12.54Q302.05 12.22 302.06 11.73L302.06 11.73Q302.11 10.82 302.11 7.36L302.11 7.36L302.11 4.98Q302.11 4.89 302.07 4.75Q302.04 4.62 301.93 4.40Q301.83 4.19 301.55 4.04Q301.28 3.89 300.87 3.89L300.87 3.89Q300.64 3.89 300.64 3.72ZM303.17 12.15L303.17 12.15Q303.17 12.99 304.54 12.99L304.54 12.99L304.86 12.99Q305.62 12.99 306.07 12.92L306.07 12.92Q306.73 12.81 307.15 12.24Q307.58 11.66 307.58 10.86L307.58 10.86Q307.58 10.18 307.33 9.68Q307.08 9.18 306.75 8.93Q306.43 8.68 305.99 8.54Q305.55 8.40 305.31 8.37Q305.06 8.34 304.84 8.34L304.84 8.34Q304.39 8.34 304.10 8.34Q303.81 8.33 303.74 8.33Q303.66 8.33 303.61 8.32Q303.56 8.32 303.53 8.32L303.53 8.32Q303.41 8.32 303.35 8.35Q303.30 8.39 303.25 8.62Q303.20 8.85 303.19 9.28Q303.18 9.72 303.18 10.58L303.18 10.58L303.18 10.70Q303.18 11.21 303.18 11.54Q303.18 11.86 303.18 11.99Q303.17 12.12 303.17 12.15ZM303.25 5.40L303.25 5.81Q303.25 6.51 303.26 6.90Q303.27 7.29 303.30 7.50Q303.32 7.71 303.35 7.77Q303.38 7.83 303.44 7.83L303.44 7.83Q303.83 7.87 304.15 7.87L304.15 7.87L305.05 7.87Q305.93 7.87 306.37 7.41Q306.81 6.94 306.81 6.22L306.81 6.22Q306.81 5.43 306.07 4.70Q305.34 3.96 303.98 3.96L303.98 3.96Q303.55 3.96 303.40 4.22Q303.25 4.48 303.25 5.40L303.25 5.40ZM326.44 3.65L326.44 3.65Q326.44 3.46 326.83 3.46L326.83 3.46Q326.89 3.46 327.01 3.47Q327.14 3.49 327.21 3.49L327.21 3.49Q327.25 3.49 328.52 3.52Q329.80 3.56 330.62 3.56L330.62 3.56Q330.92 3.56 332.07 3.53Q333.23 3.50 333.42 3.50L333.42 3.50Q333.69 3.50 333.69 3.82L333.69 3.82Q333.69 3.91 333.61 4.38Q333.52 4.84 333.52 5.25L333.52 5.25Q333.52 5.38 333.45 5.47Q333.38 5.56 333.30 5.56L333.30 5.56Q333.09 5.56 333.09 5.26L333.09 5.26Q333.09 4.89 332.85 4.58Q332.61 4.27 332.26 4.26L332.26 4.26Q331.00 4.16 330.33 4.16L330.33 4.16L329.97 4.16Q329.24 4.16 329.12 4.26Q329 4.37 328.97 5.01L328.97 5.01Q328.92 6.02 328.92 7.35L328.92 7.35Q328.92 8.05 329.18 8.06L329.18 8.06L329.53 8.06L330.12 8.06L330.55 8.06Q331.39 8.06 331.67 8.01Q331.95 7.95 332.18 7.80L332.18 7.80Q332.44 7.62 332.50 7.28L332.50 7.28Q332.54 7.04 332.70 7.04L332.70 7.04Q332.82 7.04 332.85 7.08Q332.88 7.13 332.88 7.27L332.88 7.27Q332.88 7.36 332.82 7.91Q332.77 8.46 332.77 8.74L332.77 8.74Q332.77 9.00 332.79 9.24Q332.81 9.48 332.81 9.59L332.81 9.59Q332.81 9.94 332.71 9.94L332.71 9.94Q332.50 9.94 332.40 9.60L332.40 9.60Q332.21 9.02 332.05 8.92L332.05 8.92Q331.76 8.72 330.71 8.72L330.71 8.72Q330.29 8.72 330.03 8.72Q329.77 8.72 329.69 8.71Q329.62 8.71 329.57 8.71Q329.52 8.71 329.48 8.71L329.48 8.71Q328.90 8.71 328.90 8.97L328.90 8.97Q328.90 9.38 328.89 9.99Q328.87 10.60 328.87 10.99L328.87 10.99L328.87 11.55Q328.87 12.56 329.21 12.66L329.21 12.66Q329.56 12.77 329.81 12.77L329.81 12.77Q330.86 12.77 331.65 12.67Q332.44 12.57 332.84 12.42Q333.24 12.28 333.51 12.10Q333.77 11.93 333.85 11.78Q333.93 11.63 334.00 11.54Q334.08 11.44 334.17 11.44L334.17 11.44Q334.33 11.44 334.33 11.68L334.33 11.68Q334.33 12.28 333.73 12.89Q333.13 13.51 332.68 13.51L332.68 13.51Q331.67 13.51 330.41 13.44Q329.14 13.37 328.83 13.37L328.83 13.37Q328.44 13.37 327.85 13.43Q327.26 13.50 326.93 13.50L326.93 13.50Q326.63 13.50 326.63 13.36L326.63 13.36Q326.63 13.23 326.63 13.19Q326.63 13.15 326.68 13.12Q326.72 13.09 326.77 13.08Q326.82 13.08 326.95 13.03Q327.08 12.99 327.24 12.92L327.24 12.92Q327.57 12.75 327.68 12.26Q327.78 11.77 327.78 10.21L327.78 10.21L327.78 8.47Q327.78 8.09 327.80 7.29Q327.82 6.50 327.82 6.05L327.82 6.05Q327.82 5.67 327.80 4.77L327.80 4.77Q327.78 4.37 327.45 4.14Q327.11 3.92 326.66 3.91L326.66 3.91Q326.44 3.91 326.44 3.65ZM341.89 3.71L341.89 3.71Q341.89 3.50 342.15 3.50L342.15 3.50Q342.23 3.50 342.53 3.53Q342.83 3.56 342.89 3.56L342.89 3.56Q343.10 3.56 343.46 3.54Q343.83 3.53 343.94 3.53L343.94 3.53Q344.20 3.53 344.27 3.72L344.27 3.72Q344.44 4.09 344.88 5.03Q345.31 5.98 345.57 6.54Q345.83 7.10 346.23 7.97Q346.64 8.83 346.89 9.37Q347.14 9.91 347.42 10.46Q347.69 11.00 347.84 11.26Q347.98 11.52 348.03 11.52Q348.07 11.52 348.12 11.47Q348.17 11.42 348.22 11.34Q348.26 11.26 348.30 11.17Q348.33 11.09 348.40 10.96Q348.46 10.82 348.49 10.75L348.49 10.75L350.29 7.03Q350.60 6.40 350.84 5.89Q351.08 5.39 351.22 5.08Q351.36 4.77 351.46 4.55Q351.55 4.33 351.60 4.21Q351.65 4.10 351.67 4.04Q351.69 3.98 351.71 3.94Q351.72 3.91 351.74 3.88Q351.75 3.85 351.79 3.75Q351.82 3.65 351.86 3.62Q351.89 3.58 352.00 3.54Q352.10 3.50 352.27 3.50L352.27 3.50Q352.53 3.50 352.77 3.51Q353.00 3.53 353.47 3.53L353.47 3.53Q353.71 3.53 353.71 3.71L353.71 3.71Q353.71 3.85 353.62 3.91Q353.53 3.98 353.25 4.02L353.25 4.02Q352.90 4.06 352.76 4.37Q352.62 4.68 352.62 5.54L352.62 5.54Q352.62 7.43 352.70 8.97Q352.79 10.50 352.79 10.89L352.79 10.89Q352.79 12.29 353.01 12.68Q353.23 13.06 353.95 13.06L353.95 13.06Q354.05 13.06 354.12 13.13Q354.20 13.20 354.20 13.26L354.20 13.26Q354.20 13.34 354.19 13.38Q354.17 13.43 354.13 13.45Q354.09 13.48 354.05 13.48Q354.00 13.48 353.89 13.48L353.89 13.48Q353.47 13.48 353.07 13.45Q352.66 13.43 352.46 13.43L352.46 13.43Q352.07 13.43 351.65 13.46Q351.23 13.50 351.01 13.50L351.01 13.50Q350.76 13.50 350.76 13.30L350.76 13.30Q350.76 13.17 350.87 13.12Q350.98 13.06 351.13 13.05Q351.27 13.03 351.44 12.87Q351.60 12.71 351.67 12.39L351.67 12.39Q351.72 12.11 351.72 11.49L351.72 11.49Q351.72 11.05 351.70 10.42Q351.68 9.79 351.65 9.19Q351.62 8.60 351.60 8.07Q351.57 7.55 351.55 7.21L351.55 7.21L351.53 6.87Q351.53 6.27 351.40 6.27L351.40 6.27Q351.39 6.27 351.36 6.29Q351.33 6.30 351.31 6.33Q351.29 6.36 351.26 6.38Q351.23 6.41 351.20 6.47Q351.18 6.54 351.15 6.58Q351.12 6.62 351.08 6.70Q351.04 6.78 351.01 6.83Q350.98 6.89 350.93 6.99Q350.88 7.08 350.85 7.15L350.85 7.15L348.91 11.09Q348.57 11.77 348.19 12.56L348.19 12.56Q347.94 13.09 347.89 13.18Q347.83 13.27 347.75 13.27L347.75 13.27Q347.62 13.27 347.54 13.15Q347.45 13.03 347.28 12.63Q347.12 12.22 346.99 11.96L346.99 11.96Q344.43 6.75 344.36 6.65L344.36 6.65Q344.32 6.59 344.27 6.59L344.27 6.59Q344.16 6.59 344.16 7.15L344.16 7.15Q344.15 8.25 344.09 9.31Q344.04 10.37 344.04 10.85L344.04 10.85L344.04 11.48Q344.04 11.84 344.06 12.04Q344.08 12.24 344.17 12.49Q344.26 12.75 344.50 12.89Q344.74 13.03 345.11 13.08L345.11 13.08Q345.18 13.08 345.25 13.13Q345.31 13.17 345.31 13.23L345.31 13.23Q345.31 13.38 345.27 13.43Q345.23 13.48 345.10 13.48L345.10 13.48Q344.82 13.48 344.26 13.45Q343.70 13.43 343.64 13.43L343.64 13.43Q343.62 13.43 343.24 13.45Q342.86 13.47 342.50 13.47L342.50 13.47Q342.38 13.47 342.34 13.45Q342.29 13.44 342.24 13.39Q342.20 13.34 342.20 13.24L342.20 13.24Q342.20 13.13 342.33 13.09Q342.45 13.05 342.62 13.04Q342.78 13.03 342.97 12.82Q343.17 12.60 343.27 12.18L343.27 12.18Q343.34 11.87 343.43 9.74Q343.53 7.62 343.53 6.59L343.53 6.59Q343.53 5.19 343.26 4.66Q342.99 4.13 342.08 3.92L342.08 3.92Q341.89 3.88 341.89 3.71ZM371.74 3.68L371.74 3.68Q371.74 3.61 371.76 3.58Q371.77 3.56 371.84 3.53Q371.91 3.50 372.06 3.50Q372.22 3.50 372.71 3.53Q373.20 3.56 373.65 3.56L373.65 3.56Q373.93 3.56 374.16 3.54Q374.39 3.53 374.96 3.53L374.96 3.53Q375.26 3.53 375.26 3.72L375.26 3.72Q375.26 3.85 375.16 3.88Q375.06 3.91 374.91 3.92Q374.77 3.93 374.62 4.02Q374.47 4.10 374.37 4.43Q374.28 4.76 374.28 5.32L374.28 5.32L374.28 5.71Q374.28 6.37 374.27 7.37Q374.26 8.37 374.26 8.74L374.26 8.74Q374.26 9.17 374.27 9.39Q374.28 9.62 374.30 10.04Q374.33 10.47 374.38 10.72Q374.43 10.96 374.54 11.32Q374.65 11.68 374.82 11.89Q374.98 12.10 375.22 12.35Q375.47 12.60 375.79 12.73Q376.11 12.87 376.54 12.96Q376.98 13.05 377.51 13.05L377.51 13.05Q377.96 13.05 378.21 13.03Q378.46 13.02 378.90 12.94Q379.34 12.87 379.60 12.72Q379.86 12.57 380.19 12.27Q380.52 11.97 380.70 11.54Q380.88 11.10 381.01 10.43Q381.14 9.76 381.14 8.90L381.14 8.90Q381.14 7.49 381.13 6.75Q381.12 6.01 381.12 5.94L381.12 5.94Q381.12 5.45 381.10 5.17Q381.08 4.89 380.96 4.55Q380.84 4.21 380.62 4.06L380.62 4.06Q380.48 3.96 380.25 3.93Q380.03 3.89 379.89 3.87Q379.75 3.85 379.75 3.75L379.75 3.75Q379.75 3.53 380.03 3.53L380.03 3.53Q380.11 3.53 380.58 3.54Q381.04 3.56 381.11 3.56L381.11 3.56Q381.44 3.56 381.82 3.54Q382.20 3.51 382.30 3.51L382.30 3.51Q382.59 3.51 382.59 3.70L382.59 3.70Q382.59 3.81 382.29 3.98Q381.99 4.16 381.92 4.30L381.92 4.30Q381.77 4.59 381.77 5.22L381.77 5.22Q381.77 5.32 381.77 5.62Q381.78 5.92 381.78 6.16L381.78 6.16Q381.78 8.85 381.56 10.28Q381.33 11.70 380.88 12.36Q380.42 13.01 379.51 13.40L379.51 13.40Q378.77 13.71 377.51 13.71L377.51 13.71Q375.17 13.71 374.19 12.81L374.19 12.81Q373.42 12.10 373.24 11.09Q373.06 10.09 373.06 7.64L373.06 7.64L373.06 7.41Q373.06 6.86 373.07 6.20Q373.09 5.54 373.09 5.39L373.09 5.39Q373.09 4.62 372.90 4.33Q372.72 4.05 372.05 3.95L372.05 3.95Q371.74 3.91 371.74 3.68ZM390.15 3.71L390.15 3.71Q390.15 3.50 390.40 3.50L390.40 3.50Q390.49 3.50 390.79 3.53Q391.09 3.56 391.15 3.56L391.15 3.56Q391.36 3.56 391.72 3.54Q392.08 3.53 392.20 3.53L392.20 3.53Q392.46 3.53 392.53 3.72L392.53 3.72Q392.70 4.09 393.13 5.03Q393.57 5.98 393.83 6.54Q394.09 7.10 394.49 7.97Q394.90 8.83 395.15 9.37Q395.40 9.91 395.68 10.46Q395.95 11.00 396.10 11.26Q396.24 11.52 396.28 11.52Q396.33 11.52 396.38 11.47Q396.42 11.42 396.47 11.34Q396.52 11.26 396.56 11.17Q396.59 11.09 396.66 10.96Q396.72 10.82 396.75 10.75L396.75 10.75L398.55 7.03Q398.86 6.40 399.10 5.89Q399.34 5.39 399.48 5.08Q399.62 4.77 399.71 4.55Q399.81 4.33 399.86 4.21Q399.91 4.10 399.93 4.04Q399.95 3.98 399.97 3.94Q399.98 3.91 399.99 3.88Q400.01 3.85 400.04 3.75Q400.08 3.65 400.11 3.62Q400.15 3.58 400.25 3.54Q400.36 3.50 400.53 3.50L400.53 3.50Q400.79 3.50 401.02 3.51Q401.25 3.53 401.73 3.53L401.73 3.53Q401.97 3.53 401.97 3.71L401.97 3.71Q401.97 3.85 401.88 3.91Q401.79 3.98 401.51 4.02L401.51 4.02Q401.16 4.06 401.02 4.37Q400.88 4.68 400.88 5.54L400.88 5.54Q400.88 7.43 400.96 8.97Q401.04 10.50 401.04 10.89L401.04 10.89Q401.04 12.29 401.27 12.68Q401.49 13.06 402.21 13.06L402.21 13.06Q402.30 13.06 402.38 13.13Q402.46 13.20 402.46 13.26L402.46 13.26Q402.46 13.34 402.44 13.38Q402.43 13.43 402.39 13.45Q402.35 13.48 402.30 13.48Q402.26 13.48 402.15 13.48L402.15 13.48Q401.73 13.48 401.32 13.45Q400.92 13.43 400.72 13.43L400.72 13.43Q400.33 13.43 399.91 13.46Q399.49 13.50 399.27 13.50L399.27 13.50Q399.01 13.50 399.01 13.30L399.01 13.30Q399.01 13.17 399.13 13.12Q399.24 13.06 399.39 13.05Q399.53 13.03 399.69 12.87Q399.85 12.71 399.92 12.39L399.92 12.39Q399.98 12.11 399.98 11.49L399.98 11.49Q399.98 11.05 399.96 10.42Q399.94 9.79 399.91 9.19Q399.88 8.60 399.85 8.07Q399.83 7.55 399.81 7.21L399.81 7.21L399.78 6.87Q399.78 6.27 399.66 6.27L399.66 6.27Q399.64 6.27 399.62 6.29Q399.59 6.30 399.57 6.33Q399.55 6.36 399.52 6.38Q399.49 6.41 399.46 6.47Q399.43 6.54 399.41 6.58Q399.38 6.62 399.34 6.70Q399.29 6.78 399.27 6.83Q399.24 6.89 399.19 6.99Q399.14 7.08 399.11 7.15L399.11 7.15L397.17 11.09Q396.83 11.77 396.45 12.56L396.45 12.56Q396.20 13.09 396.14 13.18Q396.09 13.27 396.00 13.27L396.00 13.27Q395.88 13.27 395.79 13.15Q395.71 13.03 395.54 12.63Q395.37 12.22 395.25 11.96L395.25 11.96Q392.69 6.75 392.62 6.65L392.62 6.65Q392.57 6.59 392.53 6.59L392.53 6.59Q392.42 6.59 392.42 7.15L392.42 7.15Q392.41 8.25 392.35 9.31Q392.29 10.37 392.29 10.85L392.29 10.85L392.29 11.48Q392.29 11.84 392.32 12.04Q392.34 12.24 392.43 12.49Q392.52 12.75 392.76 12.89Q392.99 13.03 393.37 13.08L393.37 13.08Q393.44 13.08 393.51 13.13Q393.57 13.17 393.57 13.23L393.57 13.23Q393.57 13.38 393.53 13.43Q393.48 13.48 393.36 13.48L393.36 13.48Q393.08 13.48 392.52 13.45Q391.96 13.43 391.90 13.43L391.90 13.43Q391.87 13.43 391.50 13.45Q391.12 13.47 390.75 13.47L390.75 13.47Q390.64 13.47 390.59 13.45Q390.54 13.44 390.50 13.39Q390.46 13.34 390.46 13.24L390.46 13.24Q390.46 13.13 390.59 13.09Q390.71 13.05 390.87 13.04Q391.03 13.03 391.23 12.82Q391.43 12.60 391.52 12.18L391.52 12.18Q391.59 11.87 391.69 9.74Q391.79 7.62 391.79 6.59L391.79 6.59Q391.79 5.19 391.52 4.66Q391.24 4.13 390.33 3.92L390.33 3.92Q390.15 3.88 390.15 3.71ZM420.55 10.82L420.55 10.82Q420.55 10.53 420.74 10.53L420.74 10.53Q420.92 10.53 420.97 10.67L420.97 10.67Q421.11 11.00 421.23 11.25Q421.34 11.49 421.61 11.85Q421.88 12.21 422.18 12.44Q422.49 12.67 422.98 12.84Q423.46 13.01 424.03 13.01L424.03 13.01Q425.08 13.01 425.72 12.45Q426.36 11.90 426.36 11.00L426.36 11.00Q426.36 10.35 425.92 9.90Q425.49 9.46 424.93 9.27Q424.37 9.09 423.51 8.77Q422.65 8.46 422.10 8.13L422.10 8.13Q420.83 7.38 420.83 6.08L420.83 6.08Q420.83 4.83 421.73 4.08Q422.63 3.33 424.07 3.33L424.07 3.33Q424.61 3.33 425.34 3.56Q426.08 3.79 426.09 3.79L426.09 3.79Q426.13 3.79 426.24 3.74Q426.36 3.68 426.41 3.68L426.41 3.68Q426.59 3.68 426.62 3.79L426.62 3.79Q426.92 5.49 426.92 5.70L426.92 5.70Q426.92 6.09 426.72 6.09L426.72 6.09Q426.59 6.09 426.52 5.89L426.52 5.89Q426.36 5.49 426.20 5.24Q426.03 4.98 425.96 4.91Q425.89 4.84 425.60 4.58L425.60 4.58Q424.84 3.91 423.77 3.91L423.77 3.91Q422.90 3.91 422.31 4.33Q421.72 4.75 421.72 5.46L421.72 5.46Q421.72 6.09 422.07 6.50Q422.41 6.90 422.98 7.13Q423.56 7.35 424.19 7.55Q424.82 7.74 425.52 8.09Q426.23 8.44 426.69 8.93L426.69 8.93Q427.25 9.53 427.25 10.43L427.25 10.43Q427.25 11.90 426.31 12.76Q425.38 13.62 423.99 13.62L423.99 13.62Q423.02 13.62 422.44 13.52Q421.85 13.41 421.23 13.09L421.23 13.09Q421.05 12.98 420.80 12.00Q420.55 11.02 420.55 10.82ZM440.38 2.87L440.38 2.87Q440.38 2.80 440.48 2.65Q440.58 2.51 440.85 2.00Q441.13 1.50 441.43 0.74L441.43 0.74Q441.55 0.48 441.73 0.48L441.73 0.48Q441.88 0.48 442.17 0.57Q442.46 0.66 442.46 0.84L442.46 0.84Q442.46 1.16 441.10 2.59L441.10 2.59Q440.69 3.02 440.55 3.02L440.55 3.02Q440.38 3.02 440.38 2.87ZM435.68 8.69L435.68 8.69Q435.68 6.34 437.09 4.84Q438.51 3.33 441.10 3.33L441.10 3.33Q442.30 3.33 443.27 3.68Q444.23 4.03 444.79 4.54Q445.35 5.05 445.73 5.71Q446.11 6.37 446.25 6.92Q446.39 7.48 446.39 7.95L446.39 7.95Q446.39 9.86 445.65 11.16Q444.91 12.47 443.70 13.07Q442.48 13.66 440.90 13.66L440.90 13.66Q439.24 13.66 438.03 12.94Q436.81 12.21 436.25 11.10Q435.68 10.00 435.68 8.69ZM436.91 7.98L436.91 7.98Q436.91 8.54 437.07 9.19Q437.22 9.84 437.57 10.54Q437.92 11.23 438.42 11.78Q438.91 12.33 439.68 12.69Q440.44 13.05 441.35 13.05L441.35 13.05Q441.83 13.05 442.35 12.90Q442.88 12.75 443.39 12.45Q443.91 12.14 444.32 11.70Q444.72 11.26 444.98 10.62Q445.24 9.98 445.24 9.24L445.24 9.24Q445.24 6.71 443.91 5.30Q442.58 3.89 440.62 3.89L440.62 3.89Q439.08 3.89 438.00 4.93Q436.91 5.96 436.91 7.98ZM464.27 3.71L464.27 3.71Q464.27 3.46 464.65 3.46L464.65 3.46Q464.70 3.46 464.83 3.47Q464.95 3.49 465.02 3.49L465.02 3.49Q465.16 3.49 465.55 3.51Q465.93 3.54 466.24 3.54L466.24 3.54Q466.68 3.54 467.17 3.51Q467.66 3.49 467.71 3.49L467.71 3.49Q467.95 3.49 467.95 3.63L467.95 3.63Q467.95 3.82 467.78 3.88Q467.61 3.95 467.41 3.97Q467.21 3.99 467.02 4.28Q466.83 4.56 466.80 5.14L466.80 5.14Q466.77 5.68 466.73 8.19Q466.69 10.70 466.69 10.99L466.69 10.99L466.69 11.55Q466.69 12.56 467.03 12.66L467.03 12.66Q467.38 12.77 467.63 12.77L467.63 12.77Q468.68 12.77 469.47 12.67Q470.26 12.57 470.66 12.42Q471.06 12.28 471.32 12.10Q471.59 11.93 471.67 11.78Q471.74 11.63 471.82 11.54Q471.90 11.44 471.98 11.44L471.98 11.44Q472.15 11.44 472.15 11.68L472.15 11.68Q472.15 12.28 471.55 12.89Q470.95 13.51 470.50 13.51L470.50 13.51Q469.49 13.51 468.22 13.44Q466.96 13.37 466.65 13.37L466.65 13.37Q466.26 13.37 465.75 13.43Q465.23 13.48 464.90 13.48L464.90 13.48Q464.49 13.48 464.49 13.31L464.49 13.31Q464.49 13.22 464.57 13.15Q464.65 13.09 464.72 13.09L464.72 13.09Q464.93 13.09 465.12 12.95L465.12 12.95Q465.37 12.75 465.49 12.23Q465.60 11.70 465.60 10.21L465.60 10.21L465.60 8.47Q465.60 8.09 465.62 7.29Q465.64 6.50 465.64 6.05L465.64 6.05Q465.64 5.67 465.61 4.77L465.61 4.77Q465.60 4.37 465.26 4.14Q464.93 3.92 464.48 3.91L464.48 3.91Q464.34 3.91 464.30 3.86Q464.27 3.81 464.27 3.71ZM479.30 3.68L479.30 3.68Q479.30 3.61 479.32 3.58Q479.33 3.56 479.40 3.53Q479.47 3.50 479.63 3.50Q479.78 3.50 480.27 3.53Q480.76 3.56 481.21 3.56L481.21 3.56Q481.49 3.56 481.72 3.54Q481.95 3.53 482.52 3.53L482.52 3.53Q482.82 3.53 482.82 3.72L482.82 3.72Q482.82 3.85 482.72 3.88Q482.62 3.91 482.48 3.92Q482.33 3.93 482.18 4.02Q482.03 4.10 481.94 4.43Q481.84 4.76 481.84 5.32L481.84 5.32L481.84 5.71Q481.84 6.37 481.83 7.37Q481.82 8.37 481.82 8.74L481.82 8.74Q481.82 9.17 481.83 9.39Q481.84 9.62 481.87 10.04Q481.89 10.47 481.94 10.72Q481.99 10.96 482.10 11.32Q482.22 11.68 482.38 11.89Q482.54 12.10 482.78 12.35Q483.03 12.60 483.35 12.73Q483.67 12.87 484.11 12.96Q484.54 13.05 485.07 13.05L485.07 13.05Q485.52 13.05 485.77 13.03Q486.02 13.02 486.47 12.94Q486.91 12.87 487.17 12.72Q487.42 12.57 487.75 12.27Q488.08 11.97 488.26 11.54Q488.45 11.10 488.57 10.43Q488.70 9.76 488.70 8.90L488.70 8.90Q488.70 7.49 488.69 6.75Q488.68 6.01 488.68 5.94L488.68 5.94Q488.68 5.45 488.66 5.17Q488.64 4.89 488.52 4.55Q488.40 4.21 488.18 4.06L488.18 4.06Q488.04 3.96 487.82 3.93Q487.59 3.89 487.45 3.87Q487.31 3.85 487.31 3.75L487.31 3.75Q487.31 3.53 487.59 3.53L487.59 3.53Q487.68 3.53 488.14 3.54Q488.60 3.56 488.67 3.56L488.67 3.56Q489.01 3.56 489.38 3.54Q489.76 3.51 489.86 3.51L489.86 3.51Q490.15 3.51 490.15 3.70L490.15 3.70Q490.15 3.81 489.85 3.98Q489.55 4.16 489.48 4.30L489.48 4.30Q489.33 4.59 489.33 5.22L489.33 5.22Q489.33 5.32 489.34 5.62Q489.34 5.92 489.34 6.16L489.34 6.16Q489.34 8.85 489.12 10.28Q488.89 11.70 488.44 12.36Q487.98 13.01 487.07 13.40L487.07 13.40Q486.33 13.71 485.07 13.71L485.07 13.71Q482.73 13.71 481.75 12.81L481.75 12.81Q480.98 12.10 480.80 11.09Q480.62 10.09 480.62 7.64L480.62 7.64L480.62 7.41Q480.62 6.86 480.63 6.20Q480.65 5.54 480.65 5.39L480.65 5.39Q480.65 4.62 480.47 4.33Q480.28 4.05 479.61 3.95L479.61 3.95Q479.30 3.91 479.30 3.68ZM498.05 8.83L498.05 8.83Q498.05 7.31 498.66 6.09Q499.27 4.87 500.53 4.12Q501.79 3.37 503.52 3.37L503.52 3.37Q504.20 3.37 504.78 3.48Q505.37 3.58 505.75 3.72Q506.13 3.86 506.41 4.01Q506.69 4.16 506.84 4.26Q506.98 4.37 507.01 4.37L507.01 4.37Q507.05 4.37 507.20 4.26Q507.35 4.16 507.40 4.16L507.40 4.16Q507.61 4.16 507.61 4.44L507.61 4.44Q507.63 4.84 507.68 5.29Q507.72 5.74 507.77 6.03Q507.81 6.33 507.81 6.38L507.81 6.38Q507.81 6.62 507.64 6.62Q507.47 6.62 507.40 6.45L507.40 6.45Q506.91 5.39 505.76 4.65Q504.62 3.92 503.40 3.92L503.40 3.92Q501.65 3.92 500.51 5.02Q499.37 6.12 499.37 8.06L499.37 8.06Q499.37 9.35 499.84 10.49Q500.32 11.62 501.29 12.36Q502.26 13.10 503.52 13.10L503.52 13.10Q504.60 13.10 505.48 12.61Q506.35 12.12 506.45 11.49L506.45 11.49Q506.49 11.16 506.49 9.73L506.49 9.73Q506.49 9.18 506.25 8.95L506.25 8.95Q506.09 8.78 505.64 8.72L505.64 8.72Q505.22 8.68 505.15 8.55L505.15 8.55Q505.12 8.50 505.12 8.41L505.12 8.41Q505.12 8.26 505.37 8.26L505.37 8.26Q505.55 8.26 506.16 8.29Q506.76 8.33 506.93 8.33L506.93 8.33Q507.21 8.33 507.53 8.32Q507.85 8.32 508.05 8.32L508.05 8.32L508.26 8.32Q508.48 8.32 508.48 8.44L508.48 8.44Q508.48 8.54 508.12 8.69Q507.77 8.85 507.72 9.09L507.72 9.09Q507.63 9.69 507.63 10.65L507.63 10.65Q507.63 11.07 507.64 11.40Q507.65 11.72 507.66 11.85Q507.67 11.98 507.68 12.08Q507.70 12.18 507.70 12.22L507.70 12.22Q507.70 12.29 507.59 12.33Q507.49 12.36 507.25 12.42Q507.01 12.49 506.81 12.60L506.81 12.60L506.72 12.66Q506.62 12.73 506.52 12.78Q506.42 12.84 506.26 12.92Q506.10 13.01 505.93 13.09Q505.76 13.17 505.55 13.26Q505.34 13.36 505.12 13.43Q504.90 13.50 504.66 13.55Q504.42 13.61 504.16 13.64Q503.90 13.68 503.65 13.68L503.65 13.68Q502.12 13.68 501.00 13.26Q499.87 12.85 499.25 12.14Q498.64 11.44 498.34 10.61Q498.05 9.79 498.05 8.83ZM516.17 13.33L516.17 13.33Q516.17 13.13 516.38 13.06L516.38 13.06Q516.82 12.89 517.16 12.31Q517.50 11.73 518.83 8.83L518.83 8.83Q520.20 5.87 521.25 3.63L521.25 3.63Q521.35 3.42 521.42 3.36Q521.50 3.30 521.67 3.30L521.67 3.30Q521.79 3.30 521.84 3.36Q521.88 3.42 522.02 3.82L522.02 3.82Q522.10 4.06 522.17 4.23Q522.23 4.40 522.37 4.77Q522.51 5.15 522.68 5.56L522.68 5.56Q523.12 6.66 524.22 9.22Q525.32 11.77 525.42 11.98L525.42 11.98Q525.66 12.46 525.95 12.71Q526.25 12.95 526.46 12.97Q526.68 12.99 526.83 13.04Q526.97 13.09 526.97 13.26L526.97 13.26Q526.97 13.47 526.60 13.47L526.60 13.47Q526.44 13.47 525.99 13.43Q525.55 13.38 525.34 13.38L525.34 13.38Q525.07 13.38 524.65 13.41Q524.23 13.44 524.03 13.44L524.03 13.44Q523.60 13.44 523.48 13.40Q523.36 13.37 523.36 13.24L523.36 13.24Q523.36 13.15 523.47 13.08Q523.59 13.02 523.71 13.00Q523.84 12.98 523.95 12.87Q524.06 12.77 524.06 12.59L524.06 12.59Q524.06 12.28 523.71 11.33Q523.36 10.37 523.12 9.93L523.12 9.93Q523.00 9.69 522.55 9.69L522.55 9.69Q522.48 9.69 521.93 9.70Q521.39 9.72 520.86 9.72L520.86 9.72L520.11 9.72Q519.48 9.72 519.32 9.79Q519.16 9.86 519.04 10.12L519.04 10.12Q518.95 10.30 518.76 10.70Q518.56 11.10 518.49 11.26Q518.42 11.41 518.32 11.65Q518.21 11.90 518.18 12.05Q518.14 12.19 518.14 12.31L518.14 12.31Q518.14 12.63 518.30 12.80Q518.46 12.96 518.66 12.98Q518.85 13.01 519.02 13.06Q519.18 13.12 519.18 13.26L519.18 13.26Q519.18 13.36 519.13 13.40Q519.09 13.45 518.94 13.45L518.94 13.45Q518.85 13.45 518.46 13.45Q518.06 13.44 517.78 13.44L517.78 13.44Q517.47 13.44 517.08 13.47Q516.70 13.50 516.57 13.50L516.57 13.50Q516.17 13.50 516.17 13.33ZM519.68 8.71L519.68 8.71Q519.68 8.89 519.81 8.93Q519.93 8.97 520.39 8.97L520.39 8.97L520.83 8.97L522.16 8.96Q522.70 8.96 522.70 8.74L522.70 8.74Q522.70 8.55 522.02 7.01Q521.33 5.46 521.15 5.46L521.15 5.46Q521.02 5.46 520.35 7.01Q519.68 8.55 519.68 8.71ZM534.53 3.70L534.53 3.70Q534.53 3.47 534.94 3.47L534.94 3.47L537.26 3.47Q537.59 3.47 538.01 3.45Q538.43 3.43 538.66 3.43L538.66 3.43Q539.92 3.43 540.82 4.07Q541.72 4.70 541.72 5.78L541.72 5.78Q541.72 6.50 541.44 7.03Q541.17 7.57 540.84 7.81Q540.51 8.05 540.24 8.22Q539.97 8.40 539.97 8.46L539.97 8.46Q539.97 8.62 541.14 10.27Q542.32 11.91 542.75 12.38L542.75 12.38Q543.28 13.03 544.04 13.03L544.04 13.03Q544.24 13.03 544.24 13.20L544.24 13.20Q544.24 13.41 544.07 13.48Q543.90 13.55 543.20 13.55L543.20 13.55Q542.54 13.55 542.00 13.23L542.00 13.23Q541.30 12.82 539.63 10.09L539.63 10.09Q539.53 9.94 539.49 9.87L539.49 9.87Q538.82 8.78 538.45 8.78L538.45 8.78L538.16 8.78L537.31 8.78Q537.14 8.78 537.10 8.92Q537.07 9.06 537.07 9.77L537.07 9.77Q537.07 10.44 537.07 10.88Q537.07 11.31 537.08 11.43Q537.08 11.55 537.08 11.63Q537.08 11.70 537.08 11.75L537.08 11.75Q537.08 12.32 537.35 12.63Q537.61 12.95 537.94 13.00Q538.27 13.05 538.54 13.11Q538.80 13.17 538.80 13.31L538.80 13.31Q538.80 13.54 538.55 13.54L538.55 13.54Q538.54 13.54 537.59 13.49Q536.63 13.44 536.55 13.44L536.55 13.44Q536.14 13.44 535.58 13.47Q535.02 13.50 535.01 13.50L535.01 13.50Q534.72 13.50 534.72 13.27L534.72 13.27Q534.72 13.12 534.90 13.05Q535.08 12.99 535.30 12.96Q535.53 12.94 535.71 12.66Q535.89 12.38 535.89 11.86L535.89 11.86Q535.89 11.49 535.90 9.90Q535.91 8.30 535.91 7.45L535.91 7.45Q535.91 6.58 535.90 5.86Q535.89 5.14 535.89 5.08L535.89 5.08Q535.89 4.56 535.68 4.29Q535.47 4.02 535.21 3.98Q534.95 3.95 534.74 3.89Q534.53 3.84 534.53 3.70ZM537.07 5.54L537.07 5.94Q537.07 7.38 537.08 7.72Q537.10 8.06 537.18 8.12L537.18 8.12Q537.39 8.25 537.78 8.25L537.78 8.25L537.92 8.25L538.33 8.25Q539.52 8.25 540.03 7.70Q540.54 7.15 540.54 6.30L540.54 6.30Q540.54 5.43 539.86 4.72Q539.18 4.00 537.81 4.00L537.81 4.00Q537.29 4.00 537.18 4.28Q537.07 4.55 537.07 5.54L537.07 5.54Z"></path></g></svg>